<?xml version="1.0" encoding="UTF-8" standalone="no"?>
<svg
   xmlns:dc="http://purl.org/dc/elements/1.1/"
   xmlns:cc="http://creativecommons.org/ns#"
   xmlns:rdf="http://www.w3.org/1999/02/22-rdf-syntax-ns#"
   xmlns:svg="http://www.w3.org/2000/svg"
   xmlns="http://www.w3.org/2000/svg"
   xmlns:sodipodi="http://sodipodi.sourceforge.net/DTD/sodipodi-0.dtd"
   xmlns:inkscape="http://www.inkscape.org/namespaces/inkscape"
   version="1.0"
   x="0px"
   y="0px"
   viewBox="0 0 100 81.62125"
   enable-background="new 0 0 100 65.297"
   xml:space="preserve"
   id="svg2"
   inkscape:version="0.48.4 r"
   width="100%"
   height="100%"
   sodipodi:docname="icons.svg"><metadata
     id="metadata14"><rdf:RDF><cc:Work
         rdf:about=""><dc:format>image/svg+xml</dc:format><dc:type
           rdf:resource="http://purl.org/dc/dcmitype/StillImage" /><dc:title></dc:title></cc:Work></rdf:RDF></metadata><defs
     id="defs12"><filter
       inkscape:collect="always"
       id="filter4051"><feGaussianBlur
         inkscape:collect="always"
         stdDeviation="0.67411995"
         id="feGaussianBlur4053" /></filter><filter
       inkscape:collect="always"
       id="filter4055"><feGaussianBlur
         inkscape:collect="always"
         stdDeviation="0.67411995"
         id="feGaussianBlur4057" /></filter><filter
       inkscape:collect="always"
       id="filter4059"><feGaussianBlur
         inkscape:collect="always"
         stdDeviation="0.67411995"
         id="feGaussianBlur4061" /></filter><filter
       inkscape:collect="always"
       id="filter4063"><feGaussianBlur
         inkscape:collect="always"
         stdDeviation="0.67411995"
         id="feGaussianBlur4065" /></filter><filter
       inkscape:collect="always"
       id="filter4067"><feGaussianBlur
         inkscape:collect="always"
         stdDeviation="0.67411995"
         id="feGaussianBlur4069" /></filter><filter
       inkscape:collect="always"
       id="filter4071"><feGaussianBlur
         inkscape:collect="always"
         stdDeviation="0.67411995"
         id="feGaussianBlur4073" /></filter><filter
       inkscape:collect="always"
       id="filter4075"><feGaussianBlur
         inkscape:collect="always"
         stdDeviation="0.67411995"
         id="feGaussianBlur4077" /></filter></defs><sodipodi:namedview
     pagecolor="#ffffff"
     bordercolor="#666666"
     borderopacity="1"
     objecttolerance="10"
     gridtolerance="10"
     guidetolerance="10"
     inkscape:pageopacity="0"
     inkscape:pageshadow="2"
     inkscape:window-width="1366"
     inkscape:window-height="745"
     id="namedview10"
     showgrid="false"
     inkscape:object-nodes="true"
     inkscape:zoom="2.0000001"
     inkscape:cx="-605.19144"
     inkscape:cy="-233.26169"
     inkscape:window-x="-8"
     inkscape:window-y="-8"
     inkscape:window-maximized="1"
     inkscape:current-layer="svg2"
     inkscape:snap-global="false" /><path
     inkscape:export-ydpi="90"
     inkscape:export-xdpi="90"
     inkscape:export-filename="C:\GeorgePlaten.github.io\fe-p5\map\app\images\butterfly.png"
     sodipodi:nodetypes="scsss"
     inkscape:connector-curvature="0"
     id="path3813"
     d="m -263.53891,315.36441 c -0.0968,14.9822 -18.04534,18.23291 -18.36178,38.60006 0.25465,-19.70465 -16.97694,-24.5657 -17.07376,-38.60006 -0.0661,-9.57934 7.93251,-17.34532 17.71776,-17.34532 9.78526,0 17.77967,7.76596 17.71778,17.34532 z"
     style="opacity:0.72772277;color:#000000;fill:#1a1a1a;fill-opacity:1;stroke:none;stroke-width:1.56000006;marker:none;visibility:visible;display:inline;overflow:visible;filter:url(#filter4055);enable-background:accumulate" /><path
     inkscape:export-ydpi="90"
     inkscape:export-xdpi="90"
     inkscape:export-filename="C:\GeorgePlaten.github.io\fe-p5\map\app\images\insect.png"
     style="opacity:0.72772277;color:#000000;fill:#1a1a1a;fill-opacity:1;stroke:none;stroke-width:1.56000006;marker:none;visibility:visible;display:inline;overflow:visible;filter:url(#filter4059);enable-background:accumulate"
     d="m -185.76729,315.36441 c -0.0968,14.9822 -18.04532,18.23291 -18.36177,38.60006 0.25467,-19.70465 -16.97694,-24.5657 -17.07376,-38.60006 -0.0661,-9.57934 7.93251,-17.34532 17.71777,-17.34532 9.78525,0 17.77967,7.76596 17.71776,17.34532 z"
     id="path3815"
     inkscape:connector-curvature="0"
     sodipodi:nodetypes="scsss" /><path
     inkscape:export-ydpi="90"
     inkscape:export-xdpi="90"
     inkscape:export-filename="C:\GeorgePlaten.github.io\fe-p5\map\app\images\plant.png"
     sodipodi:nodetypes="scsss"
     inkscape:connector-curvature="0"
     id="path3817"
     d="m -113.47253,315.36441 c -0.0968,14.9822 -18.04533,18.23291 -18.36178,38.60006 0.25466,-19.70465 -16.97693,-24.5657 -17.07375,-38.60006 -0.0661,-9.57934 7.93251,-17.34532 17.71776,-17.34532 9.78525,0 17.77967,7.76596 17.71777,17.34532 z"
     style="opacity:0.72772277;color:#000000;fill:#1a1a1a;fill-opacity:1;stroke:none;stroke-width:1.56000006;marker:none;visibility:visible;display:inline;overflow:visible;filter:url(#filter4063);enable-background:accumulate" /><path
     inkscape:export-ydpi="90"
     inkscape:export-xdpi="90"
     inkscape:export-filename="C:\GeorgePlaten.github.io\fe-p5\map\app\images\flower.png"
     style="opacity:0.72772277;color:#000000;fill:#1a1a1a;fill-opacity:1;stroke:none;stroke-width:1.56000006;marker:none;visibility:visible;display:inline;overflow:visible;filter:url(#filter4067);enable-background:accumulate"
     d="m -41.17778,315.36441 c -0.09682,14.9822 -18.045333,18.23291 -18.361776,38.60006 0.254657,-19.70465 -16.97694,-24.5657 -17.073759,-38.60006 -0.06608,-9.57934 7.932515,-17.34532 17.717768,-17.34532 9.785253,0 17.77967,7.76596 17.717767,17.34532 z"
     id="path3819"
     inkscape:connector-curvature="0"
     sodipodi:nodetypes="scsss" /><path
     inkscape:export-ydpi="90"
     inkscape:export-xdpi="90"
     inkscape:export-filename="C:\GeorgePlaten.github.io\fe-p5\map\app\images\bird.png"
     sodipodi:nodetypes="scsss"
     inkscape:connector-curvature="0"
     id="path3821"
     d="m 31.664681,315.36441 c -0.09684,14.9822 -18.045356,18.23291 -18.361805,38.60006 0.254666,-19.70465 -16.976927,-24.5657 -17.0737584,-38.60006 -0.066066,-9.57934 7.9325212,-17.34532 17.7177804,-17.34532 9.785255,0 17.779667,7.76596 17.717783,17.34532 z"
     style="opacity:0.72772277;color:#000000;fill:#1a1a1a;fill-opacity:1;stroke:none;stroke-width:1.56000006;marker:none;visibility:visible;display:inline;overflow:visible;filter:url(#filter4071);enable-background:accumulate" /><path
     style="opacity:0.72772277;color:#000000;fill:#1a1a1a;fill-opacity:1;stroke:none;stroke-width:1.56000006;marker:none;visibility:visible;display:inline;overflow:visible;filter:url(#filter4051);enable-background:accumulate"
     d="m -332.83538,315.36441 c -0.0968,14.9822 -18.04534,18.23291 -18.36178,38.60006 0.25465,-19.70465 -16.97694,-24.5657 -17.07376,-38.60006 -0.0661,-9.57934 7.93251,-17.34532 17.71776,-17.34532 9.78526,0 17.77967,7.76596 17.71778,17.34532 z"
     id="path3823"
     inkscape:connector-curvature="0"
     sodipodi:nodetypes="scsss"
     inkscape:export-filename="C:\GeorgePlaten.github.io\fe-p5\map\app\images\animal.png"
     inkscape:export-xdpi="90"
     inkscape:export-ydpi="90" /><path
     style="opacity:0.72772277;color:#000000;fill:#1a1a1a;fill-opacity:1;fill-rule:nonzero;stroke:none;stroke-width:1.56000006;marker:none;visibility:visible;display:inline;overflow:visible;filter:url(#filter4075);enable-background:accumulate"
     d="m 111.66469,317.36441 c -0.0968,14.9822 -18.045361,18.23291 -18.36181,38.60006 0.254666,-19.70465 -16.976927,-24.5657 -17.073758,-38.60006 -0.06607,-9.57934 7.932521,-17.34532 17.71778,-17.34532 9.785258,0 17.779668,7.76596 17.717788,17.34532 z"
     id="path3825"
     inkscape:connector-curvature="0"
     sodipodi:nodetypes="scsss"
     inkscape:export-filename="C:\GeorgePlaten.github.io\fe-p5\map\app\images\blank.png"
     inkscape:export-xdpi="90"
     inkscape:export-ydpi="90" /><path
     style="color:#000000;fill:#ff6767;stroke:none;stroke-width:1.56000007000000010;stroke-linecap:square;stroke-linejoin:round;stroke-miterlimit:4;stroke-opacity:1;stroke-dasharray:none;marker:none;visibility:visible;display:inline;overflow:visible;enable-background:accumulate;fill-opacity:1"
     d="m -263.93536,314.40731 c -0.0968,14.9822 -17.69179,19.64712 -18.00823,40.01427 0.25465,-19.70465 -17.33049,-25.97991 -17.42731,-40.01427 -0.0661,-9.57934 7.93251,-17.34532 17.71776,-17.34532 9.78526,0 17.77967,7.76596 17.71778,17.34532 z"
     id="path3856"
     inkscape:connector-curvature="0"
     sodipodi:nodetypes="scsss"
     inkscape:export-filename="C:\GeorgePlaten.github.io\fe-p5\map\app\images\butterfly.png"
     inkscape:export-xdpi="90"
     inkscape:export-ydpi="90" /><text
     x="-109.80738"
     y="97.67057"
     font-size="5px"
     font-weight="bold"
     id="text6"
     style="font-size:5px;font-weight:bold;fill:#000000;font-family:'\'Helvetica Neue\', Helvetica, Arial-Unicode, Arial, Sans-serif'">Created by Edward Boatman</text>
<text
     x="-90.439629"
     y="107.51251"
     font-size="5px"
     font-weight="bold"
     id="text8"
     style="font-size:5px;font-weight:bold;fill:#000000;font-family:'\'Helvetica Neue\', Helvetica, Arial-Unicode, Arial, Sans-serif'">from the Noun Project</text>
<path
     sodipodi:nodetypes="scsss"
     inkscape:connector-curvature="0"
     id="path3762"
     d="m -186.16374,314.40731 c -0.0968,14.9822 -17.69177,19.64712 -18.00822,40.01427 0.25467,-19.70465 -17.33049,-25.97991 -17.42731,-40.01427 -0.0661,-9.57934 7.93251,-17.34532 17.71777,-17.34532 9.78525,0 17.77967,7.76596 17.71776,17.34532 z"
     style="color:#000000;fill:#ff6767;stroke:none;stroke-width:1.56000007000000010;stroke-linecap:square;stroke-linejoin:round;stroke-miterlimit:4;stroke-opacity:1;stroke-dasharray:none;marker:none;visibility:visible;display:inline;overflow:visible;enable-background:accumulate;fill-opacity:1"
     inkscape:export-filename="C:\GeorgePlaten.github.io\fe-p5\map\app\images\insect.png"
     inkscape:export-xdpi="90"
     inkscape:export-ydpi="90" /><path
     style="fill:#004a40;fill-opacity:1"
     d="m -208.16036,305.09676 c -0.13968,0.002 -0.27085,0.0963 -0.32659,0.24131 -0.0723,0.19353 0.0151,0.41061 0.20053,0.48863 1.84373,0.77553 1.734,0.80737 1.9534,1.69981 -2.21753,1.02003 -3.69113,2.18251 -4.13881,3.77027 l -2.40218,-1.38113 c -0.43508,-0.25661 -1.0011,-0.1116 -1.2618,0.316 -0.26212,0.42564 -0.11934,0.97315 0.31545,1.22809 l 2.77877,1.65466 c -0.0626,0.45884 -0.13141,1.4593 -0.13141,1.94157 l -2.75835,0 c -0.50944,0 -0.917,0.40729 -0.917,0.90491 0,0.49732 0.40785,0.89773 0.917,0.89773 l 2.91241,0 c 0.0697,0.41281 0.16651,0.82175 0.27877,1.2209 l -2.74369,1.60874 c -0.43478,0.25689 -0.57785,0.80822 -0.31545,1.23527 0.17239,0.28144 0.47155,0.43808 0.78497,0.43808 0.1604,0 0.33067,-0.0414 0.47684,-0.12927 l 2.43556,-1.42918 c 1.15136,2.45487 4.04972,3.16 6.29432,3.16 2.24316,0 5.13248,-0.70486 6.28698,-3.16 l 2.43556,1.42918 c 0.14901,0.0873 0.3091,0.12927 0.46951,0.12927 0.31284,0 0.61991,-0.15664 0.79229,-0.43808 0.26042,-0.42732 0.12133,-0.97838 -0.31545,-1.23527 l -2.74367,-1.60874 c 0.11111,-0.39886 0.21066,-0.80781 0.27876,-1.2209 l 2.91241,0 c 0.50744,0 0.917,-0.39984 0.917,-0.89773 0,-0.49762 -0.40956,-0.90514 -0.917,-0.90491 l -2.75835,0 c 0,-0.48227 -0.18387,-1.53893 -0.24623,-1.99777 l 3.09656,-1.67794 c 0.43621,-0.25495 0.57614,-0.80272 0.31545,-1.22809 -0.26042,-0.42761 -0.82473,-0.57263 -1.2618,-0.316 l -2.71997,1.46061 c -0.77248,-2.01977 -2.10108,-2.93426 -4.26936,-3.71606 0.21834,-0.89245 0.17034,-0.92404 2.01429,-1.69981 0.18403,-0.0783 0.27487,-0.29511 0.20055,-0.48864 -0.0737,-0.19306 -0.28187,-0.2894 -0.46413,-0.21114 -1.94608,0.81841 -2.15091,1.15319 -2.4893,2.20192 -0.98594,-0.27512 -2.41594,-0.33911 -3.26001,-0.0542 -0.33999,-1.04872 -0.54256,-1.38351 -2.48931,-2.20192 -0.0456,-0.0197 -0.091,-0.031 -0.13752,-0.0302 z"
     id="path3818"
     inkscape:connector-curvature="0"
     sodipodi:nodetypes="scccccccccsssccccsccsccsccccssccccccccccccccs"
     inkscape:export-filename="C:\GeorgePlaten.github.io\fe-p5\map\app\images\insect.png"
     inkscape:export-xdpi="90"
     inkscape:export-ydpi="90" /><path
     sodipodi:nodetypes="scsss"
     inkscape:connector-curvature="0"
     id="path3848"
     d="m 113.09386,-254.54765 c -0.34585,54.6683 -63.57012,62.88044 -64.328623,112.74801 0.624907,-49.39218 -61.907646,-61.53824 -62.253499,-112.74801 -0.236067,-34.95388 28.336371,-63.29105 63.291057,-63.29105 34.954686,0 63.512195,28.33707 63.291065,63.29105 z"
     style="color:#000000;fill:#ff0000;stroke:#005174;stroke-width:10;stroke-linecap:square;stroke-linejoin:round;stroke-miterlimit:4;stroke-opacity:1;stroke-dasharray:none;marker:none;visibility:visible;display:inline;overflow:visible;enable-background:accumulate" /><path
     style="fill:#00b2ff;fill-opacity:1;stroke:#365ca1;stroke-width:5;stroke-miterlimit:4;stroke-opacity:0.969697;stroke-dasharray:none"
     inkscape:connector-curvature="0"
     id="path3850"
     d="m 156.06406,-321.66194 c -0.22149,-2.48371 -4.10174,-4.56644 -5.92256,-5.05112 -31.93405,-8.49251 -82.968875,43.62069 -94.547758,56.01006 l 0.03195,-0.51193 c 0.02557,-0.19659 0.03833,-0.39513 0.03833,-0.59757 0,-3.03456 -2.691873,-5.49297 -6.009862,-5.49297 -3.317986,0 -6.007729,2.45841 -6.007729,5.49297 0,0.20244 0.01504,0.40098 0.03833,0.59757 l 0.03195,0.51193 c -11.581036,-12.38937 -62.615867,-64.50257 -94.552031,-56.01006 -1.818718,0.48468 -5.701064,2.56547 -5.920417,5.05112 -0.528154,5.99518 1.833626,10.95287 6.137639,14.82053 17.062745,15.32856 11.581037,30.51502 16.362089,40.34476 2.806875,5.77327 23.577309,7.13581 18.94959,8.65796 -43.864316,14.43317 8.7720062,68.63494 33.333209,55.16528 9.32572,-5.11341 25.511026,-30.28144 27.798267,-33.88243 l 1.105283,17.822 c 0,1.37421 1.218161,2.48761 2.72169,2.48761 1.505657,0 2.723818,-1.1134 2.723818,-2.48761 l 1.105283,-17.822 c 2.285111,3.60294 18.472547,28.76902 27.798267,33.88243 24.563332,13.46966 77.197522,-40.73211 33.335342,-55.16528 -4.62985,-1.52215 16.14058,-2.88469 18.94747,-8.65796 4.77891,-9.82974 -0.70066,-25.01815 16.36206,-40.34476 4.30401,-3.86766 6.66791,-8.8273 6.13979,-14.82053 z" /><text
     style="font-size:5px;font-weight:bold;fill:#000000;font-family:'\'Helvetica Neue\', Helvetica, Arial-Unicode, Arial, Sans-serif'"
     id="text3852"
     font-weight="bold"
     font-size="5px"
     y="-190.07893"
     x="-109.80738">Created by Edward Boatman</text>
<text
     style="font-size:5px;font-weight:bold;fill:#000000;font-family:'\'Helvetica Neue\', Helvetica, Arial-Unicode, Arial, Sans-serif'"
     id="text3854"
     font-weight="bold"
     font-size="5px"
     y="-180.237"
     x="-90.439629">from the Noun Project</text>
<path
     sodipodi:nodetypes="sscccscsccccsccssscsssccs"
     inkscape:connector-curvature="0"
     id="path4-8"
     d="m -290.39473,307.20212 c -2.35439,0 -2.35584,2.79668 -2.35584,3.9917 0,1.29911 2.15128,5.11634 5.34287,5.47011 -0.57251,0.58384 -2.57506,1.14932 -2.83602,1.82584 -0.34214,0.88562 -0.27164,1.85191 0.20387,2.86811 0.62146,1.32276 2.12316,2.74984 3.9566,2.74984 1.17817,0 2.84791,-0.59852 4.36435,-3.28946 1.5174,2.69094 3.17766,3.28946 4.35679,3.28946 1.83344,0 3.34269,-1.42897 3.96415,-2.74984 0.47552,-1.0162 0.53846,-1.98154 0.19632,-2.86811 -0.26192,-0.67747 -2.26429,-1.24405 -2.83601,-1.82584 2.62204,-0.48215 5.32757,-2.99389 5.34286,-5.47011 0,-1.19502 -4.8e-4,-3.9917 -2.35583,-3.9917 -0.44846,0 -0.95527,0.1042 -1.55546,0.31047 -2.00493,0.69197 -5.06776,3.0462 -6.69668,5.21945 -0.0547,-1.02203 1.21965,-4.57854 2.9491,-4.52662 0.42093,0.0126 0.54732,0.33451 0.80278,-0.0423 0.21211,-0.3129 -0.37712,-0.65789 -0.83814,-0.65789 -1.6788,0 -2.71211,1.91761 -3.33743,3.54078 -0.62533,-1.62317 -1.66619,-3.54078 -3.34499,-3.54078 -0.46102,0 -1.05097,0.25753 -0.83814,0.65789 0.19444,0.36575 0.4481,-0.0113 0.90884,-0.0269 1.02034,-0.0346 2.77206,2.24072 2.91374,4.58106 -1.62961,-2.16575 -4.75309,-4.51496 -6.75228,-5.20467 -0.59922,-0.20722 -1.10796,-0.31047 -1.55545,-0.31047 z"
     style="color:#000000;fill:#004a40;fill-opacity:1;fill-rule:nonzero;stroke:none;stroke-width:1;marker:none;visibility:visible;display:inline;overflow:visible;enable-background:accumulate"
     inkscape:export-filename="C:\GeorgePlaten.github.io\fe-p5\map\app\images\butterfly.png"
     inkscape:export-xdpi="90"
     inkscape:export-ydpi="90" /><path
     style="color:#000000;fill:#ff6767;stroke:none;stroke-width:1.56000007000000010;stroke-linecap:square;stroke-linejoin:round;stroke-miterlimit:4;stroke-opacity:1;stroke-dasharray:none;marker:none;visibility:visible;display:inline;overflow:visible;enable-background:accumulate;fill-opacity:1"
     d="m -113.86898,314.40731 c -0.0968,14.9822 -17.69178,19.64712 -18.00823,40.01427 0.25466,-19.70465 -17.33048,-25.97991 -17.4273,-40.01427 -0.0661,-9.57934 7.93251,-17.34532 17.71776,-17.34532 9.78525,0 17.77967,7.76596 17.71777,17.34532 z"
     id="path3186"
     inkscape:connector-curvature="0"
     sodipodi:nodetypes="scsss"
     inkscape:export-filename="C:\GeorgePlaten.github.io\fe-p5\map\app\images\plant.png"
     inkscape:export-xdpi="90"
     inkscape:export-ydpi="90" /><path
     inkscape:connector-curvature="0"
     d="m -126.71419,302.91011 c 2.25811,6.51441 -17.83255,7.18465 -13.31633,20.21345 1.69358,4.88581 4.36496,6.07802 4.36496,6.07802 l 2.10684,-0.43637 c 0,0 -3.7248,-0.97403 -5.41838,-5.85984 -1.12906,-3.2572 7.2227,-8.47812 7.2227,-8.47812 0,0 -7.18573,5.26568 -6.02619,8.61082 13.97845,-1.15414 17.21948,-14.76417 11.0664,-20.12796 z"
     id="path4-84"
     style="color:#000000;fill:#004a40;fill-opacity:1;fill-rule:nonzero;stroke-width:1;stroke-linecap:butt;stroke-linejoin:miter;stroke-miterlimit:4;stroke-opacity:1;stroke-dasharray:none;stroke-dashoffset:0;marker:none;visibility:visible;display:inline;overflow:visible;enable-background:accumulate"
     inkscape:export-filename="C:\GeorgePlaten.github.io\fe-p5\map\app\images\plant.png"
     inkscape:export-xdpi="90"
     inkscape:export-ydpi="90" /><path
     sodipodi:nodetypes="scsss"
     inkscape:connector-curvature="0"
     id="path3980"
     d="m -41.574227,314.40731 c -0.09682,14.9822 -17.69178,19.64712 -18.008223,40.01427 0.254657,-19.70465 -17.330493,-25.97991 -17.427312,-40.01427 -0.06608,-9.57934 7.932515,-17.34532 17.717768,-17.34532 9.785253,0 17.77967,7.76596 17.717767,17.34532 z"
     style="color:#000000;fill:#ff6767;stroke:none;stroke-width:1.56000007000000010;stroke-linecap:square;stroke-linejoin:round;stroke-miterlimit:4;stroke-opacity:1;stroke-dasharray:none;marker:none;visibility:visible;display:inline;overflow:visible;enable-background:accumulate;fill-opacity:1"
     inkscape:export-filename="C:\GeorgePlaten.github.io\fe-p5\map\app\images\flower.png"
     inkscape:export-xdpi="90"
     inkscape:export-ydpi="90" /><path
     inkscape:connector-curvature="0"
     style="color:#000000;fill:#004a40;fill-opacity:1;fill-rule:nonzero;stroke-width:1;stroke-linecap:butt;stroke-linejoin:miter;stroke-miterlimit:4;stroke-opacity:1;stroke-dasharray:none;stroke-dashoffset:0;marker:none;visibility:visible;display:inline;overflow:visible;enable-background:accumulate"
     d="m -48.16735,311.62477 c 0,0 -5.014883,-3.51015 -8.243628,-0.0335 3.228745,-3.47664 -2.582993,-7.66733 -2.582993,-7.66733 0,0 -5.811739,4.19069 -2.556198,7.70083 -3.255541,-3.51014 -8.270422,0 -8.270422,0 0,0 2.109014,5.97248 6.690922,4.75933 -4.581908,1.21315 -2.555552,7.70052 -2.555552,7.70052 0,0 6.69125,0.15045 6.69125,-4.90694 0,5.05739 6.691571,4.90694 6.691571,4.90694 0,0 2.026037,-5.8552 -2.494205,-7.75173 4.520242,1.89653 6.629255,-4.70812 6.629255,-4.70812 z m -10.826621,5.18225 c -0.978957,0 -1.775809,-0.7801 -1.775809,-1.73847 0,-0.9587 0.796852,-1.73848 1.775809,-1.73848 0.978954,0 1.775809,0.77978 1.775809,1.73848 0,0.95837 -0.796855,1.73847 -1.775809,1.73847 z"
     id="path6"
     inkscape:export-filename="C:\GeorgePlaten.github.io\fe-p5\map\app\images\flower.png"
     inkscape:export-xdpi="90"
     inkscape:export-ydpi="90" /><path
     style="color:#000000;fill:#ff6767;stroke:none;stroke-width:1.56000007000000010;stroke-linecap:square;stroke-linejoin:round;stroke-miterlimit:4;stroke-opacity:1;stroke-dasharray:none;marker:none;visibility:visible;display:inline;overflow:visible;enable-background:accumulate;fill-opacity:1"
     d="m 31.268234,314.40731 c -0.09684,14.9822 -17.691803,19.64712 -18.008252,40.01427 0.254666,-19.70465 -17.3304797,-25.97991 -17.4273111,-40.01427 -0.066066,-9.57934 7.9325212,-17.34532 17.7177801,-17.34532 9.785255,0 17.779667,7.76596 17.717783,17.34532 z"
     id="path4006"
     inkscape:connector-curvature="0"
     sodipodi:nodetypes="scsss"
     inkscape:export-filename="C:\GeorgePlaten.github.io\fe-p5\map\app\images\bird.png"
     inkscape:export-xdpi="90"
     inkscape:export-ydpi="90" /><path
     style="color:#000000;fill:#004a40;fill-opacity:1;fill-rule:nonzero;stroke-width:1;stroke-linecap:butt;stroke-linejoin:miter;stroke-miterlimit:4;stroke-opacity:1;stroke-dasharray:none;stroke-dashoffset:0;marker:none;visibility:visible;display:inline;overflow:visible;enable-background:accumulate"
     sodipodi:nodetypes="cccccccccccc"
     id="path6-6"
     d="m 1.8843015,323.4805 c 0.8460739,-1.31362 2.0340934,-2.60755 4.0442969,-3.68952 1.7496369,-2.84537 5.8485686,-10.10884 9.1564326,-10.57773 0.633476,-2.07494 3.092992,-7.80845 7.973158,-3.41262 0,0 2.139743,0.15997 2.146659,0.32133 0.01553,0.34926 -2.28095,0.97412 -2.28095,0.97412 0,0 -1.599036,2.92377 -1.058946,4.97333 0.505774,1.92027 -1.15266,6.75476 -7.750439,8.43917 l -1.04695,0.0589 c -2.410763,-0.60571 -4.3211956,0.64953 -6.668176,1.42682 -1.617813,1.4838 -1.6115035,1.00722 -3.2739981,2.03507 -0.4117885,-0.85386 -0.4912026,-0.7067 -1.2410874,-0.54886 z"
     inkscape:connector-curvature="0"
     inkscape:export-filename="C:\GeorgePlaten.github.io\fe-p5\map\app\images\bird.png"
     inkscape:export-xdpi="90"
     inkscape:export-ydpi="90" /><path
     inkscape:export-ydpi="90"
     inkscape:export-xdpi="90"
     inkscape:export-filename="C:\GeorgePlaten.github.io\fe-p5\map\app\images\animal.png"
     sodipodi:nodetypes="scsss"
     inkscape:connector-curvature="0"
     id="path3022"
     d="m -333.23183,314.40731 c -0.0968,14.9822 -17.69179,19.64712 -18.00823,40.01427 0.25465,-19.70465 -17.33049,-25.97991 -17.42731,-40.01427 -0.0661,-9.57934 7.93251,-17.34532 17.71776,-17.34532 9.78526,0 17.77967,7.76596 17.71778,17.34532 z"
     style="color:#000000;fill:#ff6767;fill-opacity:1;stroke:none;stroke-width:1.56000007000000010;stroke-linecap:square;stroke-linejoin:round;stroke-miterlimit:4;stroke-opacity:1;stroke-dasharray:none;marker:none;visibility:visible;display:inline;overflow:visible;enable-background:accumulate" /><g
     inkscape:export-ydpi="90"
     inkscape:export-xdpi="90"
     inkscape:export-filename="C:\GeorgePlaten.github.io\fe-p5\map\app\images\animal.png"
     style="color:#000000;fill:#004a40;fill-opacity:1;fill-rule:nonzero;stroke:none;stroke-width:0.48547822000000002;marker:none;visibility:visible;display:inline;overflow:visible;enable-background:accumulate"
     transform="matrix(0.2557576,0,0,0.2557576,-362.39898,303.62409)"
     id="g3134"><path
       id="path3108"
       d="M 69.1,54.68 C 72.387,66.99 63.432,80.073 49.097,83.9 34.762,87.726 20.478,80.848 17.191,68.538 13.905,56.227 24.331,46.709 37.195,39.319 45.703,34.43 65.814,42.369 69.1,54.68 z"
       inkscape:connector-curvature="0"
       style="color:#000000;fill:#004a40;fill-opacity:1;fill-rule:nonzero;stroke:none;stroke-width:0.48547822000000002;marker:none;visibility:visible;display:inline;overflow:visible;enable-background:accumulate" /><path
       id="path3110"
       d="m 54.481,21.476 c 0,9.077 -4.245,10.746 -9.481,10.746 -5.236,0 -9.481,-1.669 -9.481,-10.746 0,-9.076 4.245,-16.434 9.481,-16.434 5.236,0 9.481,7.358 9.481,16.434 z"
       inkscape:connector-curvature="0"
       style="color:#000000;fill:#004a40;fill-opacity:1;fill-rule:nonzero;stroke:none;stroke-width:0.48547822000000002;marker:none;visibility:visible;display:inline;overflow:visible;enable-background:accumulate" /><path
       id="path3112"
       d="m 29.83,29.062 c -3.95,8.849 -4.245,16.434 -9.481,16.434 -5.236,0 -9.481,-7.357 -9.481,-16.434 0,-9.077 4.245,-16.435 9.481,-16.435 5.236,0 13.181,8.146 9.481,16.435 z"
       inkscape:connector-curvature="0"
       style="color:#000000;fill:#004a40;fill-opacity:1;fill-rule:nonzero;stroke:none;stroke-width:0.48547822000000002;marker:none;visibility:visible;display:inline;overflow:visible;enable-background:accumulate" /><path
       id="path3114"
       d="m 79.133,29.062 c 0,9.077 -4.244,16.434 -9.481,16.434 -5.235,0 -5.215,-7.585 -9.48,-16.434 -3.941,-8.176 4.245,-16.435 9.48,-16.435 5.237,0 9.481,7.358 9.481,16.435 z"
       inkscape:connector-curvature="0"
       style="color:#000000;fill:#004a40;fill-opacity:1;fill-rule:nonzero;stroke:none;stroke-width:0.48547822000000002;marker:none;visibility:visible;display:inline;overflow:visible;enable-background:accumulate" /></g><path
     inkscape:export-ydpi="90"
     inkscape:export-xdpi="90"
     inkscape:export-filename="C:\GeorgePlaten.github.io\fe-p5\map\app\images\blank.png"
     sodipodi:nodetypes="scsss"
     inkscape:connector-curvature="0"
     id="path3169"
     d="m 111.26824,316.40731 c -0.0968,14.9822 -17.691805,19.64712 -18.008254,40.01427 0.254666,-19.70465 -17.33048,-25.97991 -17.427311,-40.01427 -0.06607,-9.57934 7.932521,-17.34532 17.71778,-17.34532 9.785255,0 17.779665,7.76596 17.717785,17.34532 z"
     style="color:#000000;fill:#ff6767;fill-opacity:1;stroke:none;stroke-width:1.56000007000000010;stroke-linecap:square;stroke-linejoin:round;stroke-miterlimit:4;stroke-opacity:1;stroke-dasharray:none;marker:none;visibility:visible;display:inline;overflow:visible;enable-background:accumulate;fill-rule:nonzero;stroke-dashoffset:0" /><path
     inkscape:export-ydpi="90"
     inkscape:export-xdpi="90"
     inkscape:export-filename="C:\GeorgePlaten.github.io\fe-p5\map\app\images\blank.png"
     transform="matrix(1.3721615,0,0,1.3721615,-196.89452,-144.49824)"
     d="m 216.5,335.87125 a 4.75,4.75 0 1 1 -9.5,0 4.75,4.75 0 1 1 9.5,0 z"
     sodipodi:ry="4.75"
     sodipodi:rx="4.75"
     sodipodi:cy="335.87125"
     sodipodi:cx="211.75"
     id="path3171"
     style="color:#000000;fill:#004a40;fill-opacity:1;fill-rule:nonzero;stroke:none;stroke-width:2;marker:none;visibility:visible;display:inline;overflow:visible;enable-background:accumulate"
     sodipodi:type="arc" /><path
     style="opacity:0.72772277;color:#000000;fill:#1a1a1a;fill-opacity:1;stroke:none;stroke-width:1.56000006;marker:none;visibility:visible;display:inline;overflow:visible;filter:url(#filter4055);enable-background:accumulate"
     d="m -263.53891,395.36441 c -0.0968,14.9822 -18.04534,18.23291 -18.36178,38.60006 0.25465,-19.70465 -16.97694,-24.5657 -17.07376,-38.60006 -0.0661,-9.57934 7.93251,-17.34532 17.71776,-17.34532 9.78526,0 17.77967,7.76596 17.71778,17.34532 z"
     id="path4143"
     inkscape:connector-curvature="0"
     sodipodi:nodetypes="scsss"
     inkscape:export-filename="C:\GeorgePlaten.github.io\fe-p5\map\app\images\sbutterfly.png"
     inkscape:export-xdpi="90"
     inkscape:export-ydpi="90" /><path
     sodipodi:nodetypes="scsss"
     inkscape:connector-curvature="0"
     id="path4145"
     d="m -185.76729,395.36441 c -0.0968,14.9822 -18.04532,18.23291 -18.36177,38.60006 0.25467,-19.70465 -16.97694,-24.5657 -17.07376,-38.60006 -0.0661,-9.57934 7.93251,-17.34532 17.71777,-17.34532 9.78525,0 17.77967,7.76596 17.71776,17.34532 z"
     style="opacity:0.72772277;color:#000000;fill:#1a1a1a;fill-opacity:1;stroke:none;stroke-width:1.56000006;marker:none;visibility:visible;display:inline;overflow:visible;filter:url(#filter4059);enable-background:accumulate"
     inkscape:export-filename="C:\GeorgePlaten.github.io\fe-p5\map\app\images\sinsect.png"
     inkscape:export-xdpi="90"
     inkscape:export-ydpi="90" /><path
     style="opacity:0.72772277;color:#000000;fill:#1a1a1a;fill-opacity:1;stroke:none;stroke-width:1.56000006;marker:none;visibility:visible;display:inline;overflow:visible;filter:url(#filter4063);enable-background:accumulate"
     d="m -113.47253,395.36441 c -0.0968,14.9822 -18.04533,18.23291 -18.36178,38.60006 0.25466,-19.70465 -16.97693,-24.5657 -17.07375,-38.60006 -0.0661,-9.57934 7.93251,-17.34532 17.71776,-17.34532 9.78525,0 17.77967,7.76596 17.71777,17.34532 z"
     id="path4147"
     inkscape:connector-curvature="0"
     sodipodi:nodetypes="scsss"
     inkscape:export-filename="C:\GeorgePlaten.github.io\fe-p5\map\app\images\splant.png"
     inkscape:export-xdpi="90"
     inkscape:export-ydpi="90" /><path
     sodipodi:nodetypes="scsss"
     inkscape:connector-curvature="0"
     id="path4149"
     d="m -41.17778,395.36441 c -0.09682,14.9822 -18.045333,18.23291 -18.361776,38.60006 0.254657,-19.70465 -16.97694,-24.5657 -17.073759,-38.60006 -0.06608,-9.57934 7.932515,-17.34532 17.717768,-17.34532 9.785253,0 17.77967,7.76596 17.717767,17.34532 z"
     style="opacity:0.72772277;color:#000000;fill:#1a1a1a;fill-opacity:1;stroke:none;stroke-width:1.56000006;marker:none;visibility:visible;display:inline;overflow:visible;filter:url(#filter4067);enable-background:accumulate"
     inkscape:export-filename="C:\GeorgePlaten.github.io\fe-p5\map\app\images\sflower.png"
     inkscape:export-xdpi="90"
     inkscape:export-ydpi="90" /><path
     style="opacity:0.72772277;color:#000000;fill:#1a1a1a;fill-opacity:1;stroke:none;stroke-width:1.56000006;marker:none;visibility:visible;display:inline;overflow:visible;filter:url(#filter4071);enable-background:accumulate"
     d="m 31.664681,395.36441 c -0.09684,14.9822 -18.045356,18.23291 -18.361805,38.60006 0.254666,-19.70465 -16.976927,-24.5657 -17.0737584,-38.60006 -0.066066,-9.57934 7.9325212,-17.34532 17.7177804,-17.34532 9.785255,0 17.779667,7.76596 17.717783,17.34532 z"
     id="path4151"
     inkscape:connector-curvature="0"
     sodipodi:nodetypes="scsss"
     inkscape:export-filename="C:\GeorgePlaten.github.io\fe-p5\map\app\images\sbird.png"
     inkscape:export-xdpi="90"
     inkscape:export-ydpi="90" /><path
     inkscape:export-ydpi="90"
     inkscape:export-xdpi="90"
     inkscape:export-filename="C:\GeorgePlaten.github.io\fe-p5\map\app\images\sanimal.png"
     sodipodi:nodetypes="scsss"
     inkscape:connector-curvature="0"
     id="path4153"
     d="m -332.83538,395.36441 c -0.0968,14.9822 -18.04534,18.23291 -18.36178,38.60006 0.25465,-19.70465 -16.97694,-24.5657 -17.07376,-38.60006 -0.0661,-9.57934 7.93251,-17.34532 17.71776,-17.34532 9.78526,0 17.77967,7.76596 17.71778,17.34532 z"
     style="opacity:0.72772277;color:#000000;fill:#1a1a1a;fill-opacity:1;stroke:none;stroke-width:1.56000006;marker:none;visibility:visible;display:inline;overflow:visible;filter:url(#filter4051);enable-background:accumulate" /><path
     inkscape:export-ydpi="90"
     inkscape:export-xdpi="90"
     inkscape:export-filename="C:\GeorgePlaten.github.io\fe-p5\map\app\images\sblank.png"
     sodipodi:nodetypes="scsss"
     inkscape:connector-curvature="0"
     id="path4155"
     d="m 111.66469,397.36441 c -0.0968,14.9822 -18.045361,18.23291 -18.36181,38.60006 0.254666,-19.70465 -16.976927,-24.5657 -17.073758,-38.60006 -0.06607,-9.57934 7.932521,-17.34532 17.71778,-17.34532 9.785258,0 17.779668,7.76596 17.717788,17.34532 z"
     style="opacity:0.72772277;color:#000000;fill:#1a1a1a;fill-opacity:1;fill-rule:nonzero;stroke:none;stroke-width:1.56000006;marker:none;visibility:visible;display:inline;overflow:visible;filter:url(#filter4075);enable-background:accumulate" /><path
     inkscape:export-ydpi="90"
     inkscape:export-xdpi="90"
     inkscape:export-filename="C:\GeorgePlaten.github.io\fe-p5\map\app\images\sbutterfly.png"
     sodipodi:nodetypes="scsss"
     inkscape:connector-curvature="0"
     id="path4157"
     d="m -263.93536,394.40731 c -0.0968,14.9822 -17.69179,19.64712 -18.00823,40.01427 0.25465,-19.70465 -17.33049,-25.97991 -17.42731,-40.01427 -0.0661,-9.57934 7.93251,-17.34532 17.71776,-17.34532 9.78526,0 17.77967,7.76596 17.71778,17.34532 z"
     style="color:#000000;fill:#00eed6;fill-opacity:1;stroke:none;stroke-width:1.56000005999999990;marker:none;visibility:visible;display:inline;overflow:visible;enable-background:accumulate" /><path
     inkscape:export-ydpi="90"
     inkscape:export-xdpi="90"
     inkscape:export-filename="C:\GeorgePlaten.github.io\fe-p5\map\app\images\sinsect.png"
     style="color:#000000;fill:#00eed6;fill-opacity:1;stroke:none;stroke-width:1.56000005999999990;marker:none;visibility:visible;display:inline;overflow:visible;enable-background:accumulate"
     d="m -186.16374,394.40731 c -0.0968,14.9822 -17.69177,19.64712 -18.00822,40.01427 0.25467,-19.70465 -17.33049,-25.97991 -17.42731,-40.01427 -0.0661,-9.57934 7.93251,-17.34532 17.71777,-17.34532 9.78525,0 17.77967,7.76596 17.71776,17.34532 z"
     id="path4159"
     inkscape:connector-curvature="0"
     sodipodi:nodetypes="scsss" /><path
     inkscape:export-ydpi="90"
     inkscape:export-xdpi="90"
     inkscape:export-filename="C:\GeorgePlaten.github.io\fe-p5\map\app\images\splant.png"
     sodipodi:nodetypes="scsss"
     inkscape:connector-curvature="0"
     id="path4165"
     d="m -113.86898,394.40731 c -0.0968,14.9822 -17.69178,19.64712 -18.00823,40.01427 0.25466,-19.70465 -17.33048,-25.97991 -17.4273,-40.01427 -0.0661,-9.57934 7.93251,-17.34532 17.71776,-17.34532 9.78525,0 17.77967,7.76596 17.71777,17.34532 z"
     style="color:#000000;fill:#00eed6;fill-opacity:1;stroke:none;stroke-width:1.56000005999999990;marker:none;visibility:visible;display:inline;overflow:visible;enable-background:accumulate" /><path
     inkscape:export-ydpi="90"
     inkscape:export-xdpi="90"
     inkscape:export-filename="C:\GeorgePlaten.github.io\fe-p5\map\app\images\sflower.png"
     style="color:#000000;fill:#00eed6;fill-opacity:1;stroke:none;stroke-width:1.56000005999999990;marker:none;visibility:visible;display:inline;overflow:visible;enable-background:accumulate"
     d="m -41.574227,394.40731 c -0.09682,14.9822 -17.69178,19.64712 -18.008223,40.01427 0.254657,-19.70465 -17.330493,-25.97991 -17.427312,-40.01427 -0.06608,-9.57934 7.932515,-17.34532 17.717768,-17.34532 9.785253,0 17.77967,7.76596 17.717767,17.34532 z"
     id="path4169"
     inkscape:connector-curvature="0"
     sodipodi:nodetypes="scsss" /><path
     inkscape:export-ydpi="90"
     inkscape:export-xdpi="90"
     inkscape:export-filename="C:\GeorgePlaten.github.io\fe-p5\map\app\images\sbird.png"
     sodipodi:nodetypes="scsss"
     inkscape:connector-curvature="0"
     id="path4173"
     d="m 31.268234,394.40731 c -0.09684,14.9822 -17.691803,19.64712 -18.008252,40.01427 0.254666,-19.70465 -17.3304797,-25.97991 -17.4273111,-40.01427 -0.066066,-9.57934 7.9325212,-17.34532 17.7177801,-17.34532 9.785255,0 17.779667,7.76596 17.717783,17.34532 z"
     style="color:#000000;fill:#00eed6;fill-opacity:1;stroke:none;stroke-width:1.56000005999999990;marker:none;visibility:visible;display:inline;overflow:visible;enable-background:accumulate" /><path
     style="color:#000000;fill:#00eed6;fill-opacity:1;stroke:none;stroke-width:1.56000005999999990;marker:none;visibility:visible;display:inline;overflow:visible;enable-background:accumulate"
     d="m -333.23183,394.40731 c -0.0968,14.9822 -17.69179,19.64712 -18.00823,40.01427 0.25465,-19.70465 -17.33049,-25.97991 -17.42731,-40.01427 -0.0661,-9.57934 7.93251,-17.34532 17.71776,-17.34532 9.78526,0 17.77967,7.76596 17.71778,17.34532 z"
     id="path4177"
     inkscape:connector-curvature="0"
     sodipodi:nodetypes="scsss"
     inkscape:export-filename="C:\GeorgePlaten.github.io\fe-p5\map\app\images\sanimal.png"
     inkscape:export-xdpi="90"
     inkscape:export-ydpi="90" /><path
     style="color:#000000;fill:#00eed6;fill-opacity:1;fill-rule:nonzero;stroke:none;stroke-width:1.56000005999999990;marker:none;visibility:visible;display:inline;overflow:visible;enable-background:accumulate"
     d="m 111.26824,396.40731 c -0.0968,14.9822 -17.691805,19.64712 -18.008254,40.01427 0.254666,-19.70465 -17.33048,-25.97991 -17.427311,-40.01427 -0.06607,-9.57934 7.932521,-17.34532 17.71778,-17.34532 9.785255,0 17.779665,7.76596 17.717785,17.34532 z"
     id="path4189"
     inkscape:connector-curvature="0"
     sodipodi:nodetypes="scsss"
     inkscape:export-filename="C:\GeorgePlaten.github.io\fe-p5\map\app\images\sblank.png"
     inkscape:export-xdpi="90"
     inkscape:export-ydpi="90" /><path
     inkscape:export-ydpi="90"
     inkscape:export-xdpi="90"
     inkscape:export-filename="C:\GeorgePlaten.github.io\fe-p5\map\app\images\sinsect.png"
     sodipodi:nodetypes="scccccccccsssccccsccsccsccccssccccccccccccccs"
     inkscape:connector-curvature="0"
     id="path4161"
     d="m -208.16036,385.09676 c -0.13968,0.002 -0.27085,0.0963 -0.32659,0.24131 -0.0723,0.19353 0.0151,0.41061 0.20053,0.48863 1.84373,0.77553 1.734,0.80737 1.9534,1.69981 -2.21753,1.02003 -3.69113,2.18251 -4.13881,3.77027 l -2.40218,-1.38113 c -0.43508,-0.25661 -1.0011,-0.1116 -1.2618,0.316 -0.26212,0.42564 -0.11934,0.97315 0.31545,1.22809 l 2.77877,1.65466 c -0.0626,0.45884 -0.13141,1.4593 -0.13141,1.94157 l -2.75835,0 c -0.50944,0 -0.917,0.40729 -0.917,0.90491 0,0.49732 0.40785,0.89773 0.917,0.89773 l 2.91241,0 c 0.0697,0.41281 0.16651,0.82175 0.27877,1.2209 l -2.74369,1.60874 c -0.43478,0.25689 -0.57785,0.80822 -0.31545,1.23527 0.17239,0.28144 0.47155,0.43808 0.78497,0.43808 0.1604,0 0.33067,-0.0414 0.47684,-0.12927 l 2.43556,-1.42918 c 1.15136,2.45487 4.04972,3.16 6.29432,3.16 2.24316,0 5.13248,-0.70486 6.28698,-3.16 l 2.43556,1.42918 c 0.14901,0.0873 0.3091,0.12927 0.46951,0.12927 0.31284,0 0.61991,-0.15664 0.79229,-0.43808 0.26042,-0.42732 0.12133,-0.97838 -0.31545,-1.23527 l -2.74367,-1.60874 c 0.11111,-0.39886 0.21066,-0.80781 0.27876,-1.2209 l 2.91241,0 c 0.50744,0 0.917,-0.39984 0.917,-0.89773 0,-0.49762 -0.40956,-0.90514 -0.917,-0.90491 l -2.75835,0 c 0,-0.48227 -0.18387,-1.53893 -0.24623,-1.99777 l 3.09656,-1.67794 c 0.43621,-0.25495 0.57614,-0.80272 0.31545,-1.22809 -0.26042,-0.42761 -0.82473,-0.57263 -1.2618,-0.316 l -2.71997,1.46061 c -0.77248,-2.01977 -2.10108,-2.93426 -4.26936,-3.71606 0.21834,-0.89245 0.17034,-0.92404 2.01429,-1.69981 0.18403,-0.0783 0.27487,-0.29511 0.20055,-0.48864 -0.0737,-0.19306 -0.28187,-0.2894 -0.46413,-0.21114 -1.94608,0.81841 -2.15091,1.15319 -2.4893,2.20192 -0.98594,-0.27512 -2.41594,-0.33911 -3.26001,-0.0542 -0.33999,-1.04872 -0.54256,-1.38351 -2.48931,-2.20192 -0.0456,-0.0197 -0.091,-0.031 -0.13752,-0.0302 z"
     style="fill:#004a40;fill-opacity:1" /><path
     inkscape:export-ydpi="90"
     inkscape:export-xdpi="90"
     inkscape:export-filename="C:\GeorgePlaten.github.io\fe-p5\map\app\images\sbutterfly.png"
     style="color:#000000;fill:#004a40;fill-opacity:1;fill-rule:nonzero;stroke:none;stroke-width:1;marker:none;visibility:visible;display:inline;overflow:visible;enable-background:accumulate"
     d="m -290.39473,387.20212 c -2.35439,0 -2.35584,2.79668 -2.35584,3.9917 0,1.29911 2.15128,5.11634 5.34287,5.47011 -0.57251,0.58384 -2.57506,1.14932 -2.83602,1.82584 -0.34214,0.88562 -0.27164,1.85191 0.20387,2.86811 0.62146,1.32276 2.12316,2.74984 3.9566,2.74984 1.17817,0 2.84791,-0.59852 4.36435,-3.28946 1.5174,2.69094 3.17766,3.28946 4.35679,3.28946 1.83344,0 3.34269,-1.42897 3.96415,-2.74984 0.47552,-1.0162 0.53846,-1.98154 0.19632,-2.86811 -0.26192,-0.67747 -2.26429,-1.24405 -2.83601,-1.82584 2.62204,-0.48215 5.32757,-2.99389 5.34286,-5.47011 0,-1.19502 -4.8e-4,-3.9917 -2.35583,-3.9917 -0.44846,0 -0.95527,0.1042 -1.55546,0.31047 -2.00493,0.69197 -5.06776,3.0462 -6.69668,5.21945 -0.0547,-1.02203 1.21965,-4.57854 2.9491,-4.52662 0.42093,0.0126 0.54732,0.33451 0.80278,-0.0423 0.21211,-0.3129 -0.37712,-0.65789 -0.83814,-0.65789 -1.6788,0 -2.71211,1.91761 -3.33743,3.54078 -0.62533,-1.62317 -1.66619,-3.54078 -3.34499,-3.54078 -0.46102,0 -1.05097,0.25753 -0.83814,0.65789 0.19444,0.36575 0.4481,-0.0113 0.90884,-0.0269 1.02034,-0.0346 2.77206,2.24072 2.91374,4.58106 -1.62961,-2.16575 -4.75309,-4.51496 -6.75228,-5.20467 -0.59922,-0.20722 -1.10796,-0.31047 -1.55545,-0.31047 z"
     id="path4163"
     inkscape:connector-curvature="0"
     sodipodi:nodetypes="sscccscsccccsccssscsssccs" /><path
     inkscape:export-ydpi="90"
     inkscape:export-xdpi="90"
     inkscape:export-filename="C:\GeorgePlaten.github.io\fe-p5\map\app\images\splant.png"
     style="color:#000000;fill:#004a40;fill-opacity:1;fill-rule:nonzero;stroke-width:1;stroke-linecap:butt;stroke-linejoin:miter;stroke-miterlimit:4;stroke-opacity:1;stroke-dasharray:none;stroke-dashoffset:0;marker:none;visibility:visible;display:inline;overflow:visible;enable-background:accumulate"
     id="path4167"
     d="m -126.71419,382.91011 c 2.25811,6.51441 -17.83255,7.18465 -13.31633,20.21345 1.69358,4.88581 4.36496,6.07802 4.36496,6.07802 l 2.10684,-0.43637 c 0,0 -3.7248,-0.97403 -5.41838,-5.85984 -1.12906,-3.2572 7.2227,-8.47812 7.2227,-8.47812 0,0 -7.18573,5.26568 -6.02619,8.61082 13.97845,-1.15414 17.21948,-14.76417 11.0664,-20.12796 z"
     inkscape:connector-curvature="0" /><path
     inkscape:export-ydpi="90"
     inkscape:export-xdpi="90"
     inkscape:export-filename="C:\GeorgePlaten.github.io\fe-p5\map\app\images\sflower.png"
     id="path4171"
     d="m -48.16735,391.62477 c 0,0 -5.014883,-3.51015 -8.243628,-0.0335 3.228745,-3.47664 -2.582993,-7.66733 -2.582993,-7.66733 0,0 -5.811739,4.19069 -2.556198,7.70083 -3.255541,-3.51014 -8.270422,0 -8.270422,0 0,0 2.109014,5.97248 6.690922,4.75933 -4.581908,1.21315 -2.555552,7.70052 -2.555552,7.70052 0,0 6.69125,0.15045 6.69125,-4.90694 0,5.05739 6.691571,4.90694 6.691571,4.90694 0,0 2.026037,-5.8552 -2.494205,-7.75173 4.520242,1.89653 6.629255,-4.70812 6.629255,-4.70812 z m -10.826621,5.18225 c -0.978957,0 -1.775809,-0.7801 -1.775809,-1.73847 0,-0.9587 0.796852,-1.73848 1.775809,-1.73848 0.978954,0 1.775809,0.77978 1.775809,1.73848 0,0.95837 -0.796855,1.73847 -1.775809,1.73847 z"
     style="color:#000000;fill:#004a40;fill-opacity:1;fill-rule:nonzero;stroke-width:1;stroke-linecap:butt;stroke-linejoin:miter;stroke-miterlimit:4;stroke-opacity:1;stroke-dasharray:none;stroke-dashoffset:0;marker:none;visibility:visible;display:inline;overflow:visible;enable-background:accumulate"
     inkscape:connector-curvature="0" /><path
     inkscape:export-ydpi="90"
     inkscape:export-xdpi="90"
     inkscape:export-filename="C:\GeorgePlaten.github.io\fe-p5\map\app\images\sbird.png"
     inkscape:connector-curvature="0"
     d="m 1.8843015,403.4805 c 0.8460739,-1.31362 2.0340934,-2.60755 4.0442969,-3.68952 1.7496369,-2.84537 5.8485686,-10.10884 9.1564326,-10.57773 0.633476,-2.07494 3.092992,-7.80845 7.973158,-3.41262 0,0 2.139743,0.15997 2.146659,0.32133 0.01553,0.34926 -2.28095,0.97412 -2.28095,0.97412 0,0 -1.599036,2.92377 -1.058946,4.97333 0.505774,1.92027 -1.15266,6.75476 -7.750439,8.43917 l -1.04695,0.0589 c -2.410763,-0.60571 -4.3211956,0.64953 -6.668176,1.42682 -1.617813,1.4838 -1.6115035,1.00722 -3.2739981,2.03507 -0.4117885,-0.85386 -0.4912026,-0.7067 -1.2410874,-0.54886 z"
     id="path4175"
     sodipodi:nodetypes="cccccccccccc"
     style="color:#000000;fill:#004a40;fill-opacity:1;fill-rule:nonzero;stroke-width:1;stroke-linecap:butt;stroke-linejoin:miter;stroke-miterlimit:4;stroke-opacity:1;stroke-dasharray:none;stroke-dashoffset:0;marker:none;visibility:visible;display:inline;overflow:visible;enable-background:accumulate" /><g
     id="g4179"
     transform="matrix(0.2557576,0,0,0.2557576,-362.39898,383.62409)"
     style="color:#000000;fill:#004a40;fill-opacity:1;fill-rule:nonzero;stroke:none;stroke-width:0.48547822;marker:none;visibility:visible;display:inline;overflow:visible;enable-background:accumulate"
     inkscape:export-filename="C:\GeorgePlaten.github.io\fe-p5\map\app\images\sanimal.png"
     inkscape:export-xdpi="90"
     inkscape:export-ydpi="90"><path
       style="color:#000000;fill:#004a40;fill-opacity:1;fill-rule:nonzero;stroke:none;stroke-width:0.48547822;marker:none;visibility:visible;display:inline;overflow:visible;enable-background:accumulate"
       inkscape:connector-curvature="0"
       d="M 69.1,54.68 C 72.387,66.99 63.432,80.073 49.097,83.9 34.762,87.726 20.478,80.848 17.191,68.538 13.905,56.227 24.331,46.709 37.195,39.319 45.703,34.43 65.814,42.369 69.1,54.68 z"
       id="path4181" /><path
       style="color:#000000;fill:#004a40;fill-opacity:1;fill-rule:nonzero;stroke:none;stroke-width:0.48547822;marker:none;visibility:visible;display:inline;overflow:visible;enable-background:accumulate"
       inkscape:connector-curvature="0"
       d="m 54.481,21.476 c 0,9.077 -4.245,10.746 -9.481,10.746 -5.236,0 -9.481,-1.669 -9.481,-10.746 0,-9.076 4.245,-16.434 9.481,-16.434 5.236,0 9.481,7.358 9.481,16.434 z"
       id="path4183" /><path
       style="color:#000000;fill:#004a40;fill-opacity:1;fill-rule:nonzero;stroke:none;stroke-width:0.48547822;marker:none;visibility:visible;display:inline;overflow:visible;enable-background:accumulate"
       inkscape:connector-curvature="0"
       d="m 29.83,29.062 c -3.95,8.849 -4.245,16.434 -9.481,16.434 -5.236,0 -9.481,-7.357 -9.481,-16.434 0,-9.077 4.245,-16.435 9.481,-16.435 5.236,0 13.181,8.146 9.481,16.435 z"
       id="path4185" /><path
       style="color:#000000;fill:#004a40;fill-opacity:1;fill-rule:nonzero;stroke:none;stroke-width:0.48547822;marker:none;visibility:visible;display:inline;overflow:visible;enable-background:accumulate"
       inkscape:connector-curvature="0"
       d="m 79.133,29.062 c 0,9.077 -4.244,16.434 -9.481,16.434 -5.235,0 -5.215,-7.585 -9.48,-16.434 -3.941,-8.176 4.245,-16.435 9.48,-16.435 5.237,0 9.481,7.358 9.481,16.435 z"
       id="path4187" /></g><path
     sodipodi:type="arc"
     style="color:#000000;fill:#004a40;fill-opacity:1;fill-rule:nonzero;stroke:none;stroke-width:2;marker:none;visibility:visible;display:inline;overflow:visible;enable-background:accumulate"
     id="path4191"
     sodipodi:cx="211.75"
     sodipodi:cy="335.87125"
     sodipodi:rx="4.75"
     sodipodi:ry="4.75"
     d="m 216.5,335.87125 a 4.75,4.75 0 1 1 -9.5,0 4.75,4.75 0 1 1 9.5,0 z"
     transform="matrix(1.3721615,0,0,1.3721615,-196.89452,-64.498239)"
     inkscape:export-filename="C:\GeorgePlaten.github.io\fe-p5\map\app\images\sblank.png"
     inkscape:export-xdpi="90"
     inkscape:export-ydpi="90" /><g
     id="g3890"
     transform="translate(-128,-4.0000001)"><path
       inkscape:export-ydpi="90"
       inkscape:export-xdpi="90"
       inkscape:export-filename="C:\GeorgePlaten.github.io\fe-p5\map\app\images\favicon.png"
       transform="matrix(0.87582515,0,0,0.87582515,67.832164,25.548363)"
       d="m 279.66072,332.20221 c 0,10.00718 -8.11243,18.11961 -18.11961,18.11961 -10.00719,0 -18.11961,-8.11243 -18.11961,-18.11961 0,-10.00719 8.11242,-18.11961 18.11961,-18.11961 10.00718,0 18.11961,8.11242 18.11961,18.11961 z"
       sodipodi:ry="18.119612"
       sodipodi:rx="18.119612"
       sodipodi:cy="332.20221"
       sodipodi:cx="261.54111"
       id="path3084"
       style="color:#000000;fill:#ff6767;fill-opacity:1;fill-rule:nonzero;stroke:none;stroke-width:1.56000006;marker:none;visibility:visible;display:inline;overflow:visible;enable-background:accumulate"
       sodipodi:type="arc" /><g
       inkscape:export-ydpi="90"
       inkscape:export-xdpi="90"
       inkscape:export-filename="C:\GeorgePlaten.github.io\fe-p5\map\app\images\favicon.png"
       style="color:#000000;fill:#004a40;fill-opacity:1;fill-rule:nonzero;stroke:none;stroke-width:0.48547822;marker:none;visibility:visible;display:inline;overflow:visible;enable-background:accumulate"
       transform="matrix(0.2557576,0,0,0.2557576,285.31084,305.0383)"
       id="g3063"><path
         id="path3065"
         d="M 69.1,54.68 C 72.387,66.99 63.432,80.073 49.097,83.9 34.762,87.726 20.478,80.848 17.191,68.538 13.905,56.227 24.331,46.709 37.195,39.319 45.703,34.43 65.814,42.369 69.1,54.68 z"
         inkscape:connector-curvature="0"
         style="color:#000000;fill:#004a40;fill-opacity:1;fill-rule:nonzero;stroke:none;stroke-width:0.48547822;marker:none;visibility:visible;display:inline;overflow:visible;enable-background:accumulate" /><path
         id="path3067"
         d="m 54.481,21.476 c 0,9.077 -4.245,10.746 -9.481,10.746 -5.236,0 -9.481,-1.669 -9.481,-10.746 0,-9.076 4.245,-16.434 9.481,-16.434 5.236,0 9.481,7.358 9.481,16.434 z"
         inkscape:connector-curvature="0"
         style="color:#000000;fill:#004a40;fill-opacity:1;fill-rule:nonzero;stroke:none;stroke-width:0.48547822;marker:none;visibility:visible;display:inline;overflow:visible;enable-background:accumulate" /><path
         id="path3069"
         d="m 29.83,29.062 c -3.95,8.849 -4.245,16.434 -9.481,16.434 -5.236,0 -9.481,-7.357 -9.481,-16.434 0,-9.077 4.245,-16.435 9.481,-16.435 5.236,0 13.181,8.146 9.481,16.435 z"
         inkscape:connector-curvature="0"
         style="color:#000000;fill:#004a40;fill-opacity:1;fill-rule:nonzero;stroke:none;stroke-width:0.48547822;marker:none;visibility:visible;display:inline;overflow:visible;enable-background:accumulate" /><path
         id="path3071"
         d="m 79.133,29.062 c 0,9.077 -4.244,16.434 -9.481,16.434 -5.235,0 -5.215,-7.585 -9.48,-16.434 -3.941,-8.176 4.245,-16.435 9.48,-16.435 5.237,0 9.481,7.358 9.481,16.435 z"
         inkscape:connector-curvature="0"
         style="color:#000000;fill:#004a40;fill-opacity:1;fill-rule:nonzero;stroke:none;stroke-width:0.48547822;marker:none;visibility:visible;display:inline;overflow:visible;enable-background:accumulate" /></g></g><path
     style="opacity:0.72772277;color:#000000;fill:#1a1a1a;fill-opacity:1;stroke:none;stroke-width:1.56000006;marker:none;visibility:visible;display:inline;overflow:visible;filter:url(#filter4055);enable-background:accumulate"
     d="m -400.53891,315.36441 c -0.0968,14.9822 -18.04534,18.23291 -18.36178,38.60006 0.25465,-19.70465 -16.97694,-24.5657 -17.07376,-38.60006 -0.0661,-9.57934 7.93251,-17.34532 17.71776,-17.34532 9.78526,0 17.77967,7.76596 17.71778,17.34532 z"
     id="path3898"
     inkscape:connector-curvature="0"
     sodipodi:nodetypes="scsss"
     inkscape:export-filename="C:\GeorgePlaten.github.io\fe-p5\map\app\images\crustacean.png"
     inkscape:export-xdpi="90"
     inkscape:export-ydpi="90" /><path
     inkscape:export-ydpi="90"
     inkscape:export-xdpi="90"
     inkscape:export-filename="C:\GeorgePlaten.github.io\fe-p5\map\app\images\carnivore.png"
     sodipodi:nodetypes="scsss"
     inkscape:connector-curvature="0"
     id="path3900"
     d="m -469.83538,315.36441 c -0.0968,14.9822 -18.04534,18.23291 -18.36178,38.60006 0.25465,-19.70465 -16.97694,-24.5657 -17.07376,-38.60006 -0.0661,-9.57934 7.93251,-17.34532 17.71776,-17.34532 9.78526,0 17.77967,7.76596 17.71778,17.34532 z"
     style="opacity:0.72772277;color:#000000;fill:#1a1a1a;fill-opacity:1;stroke:none;stroke-width:1.56000006;marker:none;visibility:visible;display:inline;overflow:visible;filter:url(#filter4051);enable-background:accumulate" /><path
     inkscape:export-ydpi="90"
     inkscape:export-xdpi="90"
     inkscape:export-filename="C:\GeorgePlaten.github.io\fe-p5\map\app\images\crustacean.png"
     sodipodi:nodetypes="scsss"
     inkscape:connector-curvature="0"
     id="path3902"
     d="m -400.93536,314.40731 c -0.0968,14.9822 -17.69179,19.64712 -18.00823,40.01427 0.25465,-19.70465 -17.33049,-25.97991 -17.42731,-40.01427 -0.0661,-9.57934 7.93251,-17.34532 17.71776,-17.34532 9.78526,0 17.77967,7.76596 17.71778,17.34532 z"
     style="color:#000000;fill:#ff6767;fill-opacity:1;stroke:none;stroke-width:1.56000006;marker:none;visibility:visible;display:inline;overflow:visible;enable-background:accumulate" /><path
     style="color:#000000;fill:#ff6767;fill-opacity:1;stroke:none;stroke-width:1.56000006;marker:none;visibility:visible;display:inline;overflow:visible;enable-background:accumulate"
     d="m -470.23183,314.40731 c -0.0968,14.9822 -17.69179,19.64712 -18.00823,40.01427 0.25465,-19.70465 -17.33049,-25.97991 -17.42731,-40.01427 -0.0661,-9.57934 7.93251,-17.34532 17.71776,-17.34532 9.78526,0 17.77967,7.76596 17.71778,17.34532 z"
     id="path3906"
     inkscape:connector-curvature="0"
     sodipodi:nodetypes="scsss"
     inkscape:export-filename="C:\GeorgePlaten.github.io\fe-p5\map\app\images\carnivore.png"
     inkscape:export-xdpi="90"
     inkscape:export-ydpi="90" /><path
     inkscape:export-ydpi="90"
     inkscape:export-xdpi="90"
     inkscape:export-filename="C:\GeorgePlaten.github.io\fe-p5\map\app\images\scrustacean.png"
     sodipodi:nodetypes="scsss"
     inkscape:connector-curvature="0"
     id="path3918"
     d="m -400.53891,395.36441 c -0.0968,14.9822 -18.04534,18.23291 -18.36178,38.60006 0.25465,-19.70465 -16.97694,-24.5657 -17.07376,-38.60006 -0.0661,-9.57934 7.93251,-17.34532 17.71776,-17.34532 9.78526,0 17.77967,7.76596 17.71778,17.34532 z"
     style="opacity:0.72772277;color:#000000;fill:#1a1a1a;fill-opacity:1;stroke:none;stroke-width:1.56000006;marker:none;visibility:visible;display:inline;overflow:visible;filter:url(#filter4055);enable-background:accumulate" /><path
     style="opacity:0.72772277;color:#000000;fill:#1a1a1a;fill-opacity:1;stroke:none;stroke-width:1.56000006;marker:none;visibility:visible;display:inline;overflow:visible;filter:url(#filter4051);enable-background:accumulate"
     d="m -469.83538,395.36441 c -0.0968,14.9822 -18.04534,18.23291 -18.36178,38.60006 0.25465,-19.70465 -16.97694,-24.5657 -17.07376,-38.60006 -0.0661,-9.57934 7.93251,-17.34532 17.71776,-17.34532 9.78526,0 17.77967,7.76596 17.71778,17.34532 z"
     id="path3920"
     inkscape:connector-curvature="0"
     sodipodi:nodetypes="scsss"
     inkscape:export-filename="C:\GeorgePlaten.github.io\fe-p5\map\app\images\scarnivore.png"
     inkscape:export-xdpi="90"
     inkscape:export-ydpi="90" /><path
     style="color:#000000;fill:#00eed6;fill-opacity:1;stroke:none;stroke-width:1.56000006;marker:none;visibility:visible;display:inline;overflow:visible;enable-background:accumulate"
     d="m -400.93536,394.40731 c -0.0968,14.9822 -17.69179,19.64712 -18.00823,40.01427 0.25465,-19.70465 -17.33049,-25.97991 -17.42731,-40.01427 -0.0661,-9.57934 7.93251,-17.34532 17.71776,-17.34532 9.78526,0 17.77967,7.76596 17.71778,17.34532 z"
     id="path3922"
     inkscape:connector-curvature="0"
     sodipodi:nodetypes="scsss"
     inkscape:export-filename="C:\GeorgePlaten.github.io\fe-p5\map\app\images\scrustacean.png"
     inkscape:export-xdpi="90"
     inkscape:export-ydpi="90" /><path
     inkscape:export-ydpi="90"
     inkscape:export-xdpi="90"
     inkscape:export-filename="C:\GeorgePlaten.github.io\fe-p5\map\app\images\scarnivore.png"
     sodipodi:nodetypes="scsss"
     inkscape:connector-curvature="0"
     id="path3924"
     d="m -470.23183,394.40731 c -0.0968,14.9822 -17.69179,19.64712 -18.00823,40.01427 0.25465,-19.70465 -17.33049,-25.97991 -17.42731,-40.01427 -0.0661,-9.57934 7.93251,-17.34532 17.71776,-17.34532 9.78526,0 17.77967,7.76596 17.71778,17.34532 z"
     style="color:#000000;fill:#00eed6;fill-opacity:1;stroke:none;stroke-width:1.56000006;marker:none;visibility:visible;display:inline;overflow:visible;enable-background:accumulate" /><g
     transform="matrix(0.21330359,0,0,0.21330359,-429.07274,303.4681)"
     id="g4119"
     style="color:#000000;fill:#004a40;fill-opacity:1;fill-rule:nonzero;stroke:none;stroke-width:0.5821034;marker:none;visibility:visible;display:inline;overflow:visible;enable-background:accumulate"
     inkscape:export-filename="C:\GeorgePlaten.github.io\fe-p5\map\app\images\crustacean.png"
     inkscape:export-xdpi="90"
     inkscape:export-ydpi="90"><path
       inkscape:connector-curvature="0"
       d="m 68.066,70.581 c -1.158,3.054 -2.951,5.834 -5.248,8.158 l 10.948,15.07 C 80.783,89.948 86.665,84.503 91.041,78.043 L 68.066,70.581 z"
       id="path4121"
       style="color:#000000;fill:#004a40;fill-opacity:1;fill-rule:nonzero;stroke:none;stroke-width:0.5821034;marker:none;visibility:visible;display:inline;overflow:visible;enable-background:accumulate" /><path
       inkscape:connector-curvature="0"
       d="m 69.111,66.999 23.961,7.786 c 4.611,-8.072 6.993,-17.441 6.526,-27.131 l -30.507,9.912 c 0.669,3.21 0.642,6.407 0.02,9.433 z"
       id="path4123"
       style="color:#000000;fill:#004a40;fill-opacity:1;fill-rule:nonzero;stroke:none;stroke-width:0.5821034;marker:none;visibility:visible;display:inline;overflow:visible;enable-background:accumulate" /><path
       inkscape:connector-curvature="0"
       d="m 62.786,45.864 c 2.259,2.261 4.069,5.007 5.256,8.124 L 99.267,43.842 C 99.075,42.316 98.817,40.786 98.48,39.255 96.375,29.704 91.668,21.401 85.267,14.92 L 62.786,45.864 z"
       id="path4125"
       style="color:#000000;fill:#004a40;fill-opacity:1;fill-rule:nonzero;stroke:none;stroke-width:0.5821034;marker:none;visibility:visible;display:inline;overflow:visible;enable-background:accumulate" /><path
       inkscape:connector-curvature="0"
       d="m 35.73,83.103 -8.44,11.612 c 5.972,2.988 12.554,4.803 19.397,5.205 V 85.626 C 42.809,85.696 39.06,84.795 35.73,83.103 z"
       id="path4127"
       style="color:#000000;fill:#004a40;fill-opacity:1;fill-rule:nonzero;stroke:none;stroke-width:0.5821034;marker:none;visibility:visible;display:inline;overflow:visible;enable-background:accumulate" /><path
       inkscape:connector-curvature="0"
       d="m 59.976,81.176 c -2.519,1.836 -5.448,3.193 -8.687,3.906 -0.289,0.064 -0.58,0.117 -0.869,0.167 V 100 c 3.296,-0.055 6.638,-0.436 9.981,-1.173 3.505,-0.771 6.844,-1.896 9.983,-3.324 L 59.976,81.176 z"
       id="path4129"
       style="color:#000000;fill:#004a40;fill-opacity:1;fill-rule:nonzero;stroke:none;stroke-width:0.5821034;marker:none;visibility:visible;display:inline;overflow:visible;enable-background:accumulate" /><path
       inkscape:connector-curvature="0"
       d="m 23.517,67.331 c -0.59,-2.678 -0.683,-5.35 -0.357,-7.921 l 0,0 C 18.043,65.49 18.02,70.581 18.02,70.581 11.494,59.867 0.345,58.263 0.345,58.263 c 0.141,0.828 0.3,1.656 0.482,2.486 3.085,14.006 11.763,25.333 23.168,32.158 L 32.543,81.144 C 28.11,77.911 24.789,73.113 23.517,67.331 z"
       id="path4131"
       style="color:#000000;fill:#004a40;fill-opacity:1;fill-rule:nonzero;stroke:none;stroke-width:0.5821034;marker:none;visibility:visible;display:inline;overflow:visible;enable-background:accumulate" /><path
       inkscape:connector-curvature="0"
       d="M 48.14,0.024 V 39.09 c 4.306,0.343 8.379,1.88 11.798,4.348 L 82.525,12.347 C 73.204,4.223 60.983,-0.379 48.14,0.024 z"
       id="path4133"
       style="color:#000000;fill:#004a40;fill-opacity:1;fill-rule:nonzero;stroke:none;stroke-width:0.5821034;marker:none;visibility:visible;display:inline;overflow:visible;enable-background:accumulate" /></g><g
     style="color:#000000;fill:#004a40;fill-opacity:1;fill-rule:nonzero;stroke:none;stroke-width:0.58210337;marker:none;visibility:visible;display:inline;overflow:visible;enable-background:accumulate"
     id="g4209"
     transform="matrix(0.21330359,0,0,0.21330359,-429.07274,383.4681)"
     inkscape:export-filename="C:\GeorgePlaten.github.io\fe-p5\map\app\images\scrustacean.png"
     inkscape:export-xdpi="90"
     inkscape:export-ydpi="90"><path
       style="color:#000000;fill:#004a40;fill-opacity:1;fill-rule:nonzero;stroke:none;stroke-width:0.58210337;marker:none;visibility:visible;display:inline;overflow:visible;enable-background:accumulate"
       id="path4211"
       d="m 68.066,70.581 c -1.158,3.054 -2.951,5.834 -5.248,8.158 l 10.948,15.07 C 80.783,89.948 86.665,84.503 91.041,78.043 L 68.066,70.581 z"
       inkscape:connector-curvature="0" /><path
       style="color:#000000;fill:#004a40;fill-opacity:1;fill-rule:nonzero;stroke:none;stroke-width:0.58210337;marker:none;visibility:visible;display:inline;overflow:visible;enable-background:accumulate"
       id="path4213"
       d="m 69.111,66.999 23.961,7.786 c 4.611,-8.072 6.993,-17.441 6.526,-27.131 l -30.507,9.912 c 0.669,3.21 0.642,6.407 0.02,9.433 z"
       inkscape:connector-curvature="0" /><path
       style="color:#000000;fill:#004a40;fill-opacity:1;fill-rule:nonzero;stroke:none;stroke-width:0.58210337;marker:none;visibility:visible;display:inline;overflow:visible;enable-background:accumulate"
       id="path4215"
       d="m 62.786,45.864 c 2.259,2.261 4.069,5.007 5.256,8.124 L 99.267,43.842 C 99.075,42.316 98.817,40.786 98.48,39.255 96.375,29.704 91.668,21.401 85.267,14.92 L 62.786,45.864 z"
       inkscape:connector-curvature="0" /><path
       style="color:#000000;fill:#004a40;fill-opacity:1;fill-rule:nonzero;stroke:none;stroke-width:0.58210337;marker:none;visibility:visible;display:inline;overflow:visible;enable-background:accumulate"
       id="path4217"
       d="m 35.73,83.103 -8.44,11.612 c 5.972,2.988 12.554,4.803 19.397,5.205 V 85.626 C 42.809,85.696 39.06,84.795 35.73,83.103 z"
       inkscape:connector-curvature="0" /><path
       style="color:#000000;fill:#004a40;fill-opacity:1;fill-rule:nonzero;stroke:none;stroke-width:0.58210337;marker:none;visibility:visible;display:inline;overflow:visible;enable-background:accumulate"
       id="path4219"
       d="m 59.976,81.176 c -2.519,1.836 -5.448,3.193 -8.687,3.906 -0.289,0.064 -0.58,0.117 -0.869,0.167 V 100 c 3.296,-0.055 6.638,-0.436 9.981,-1.173 3.505,-0.771 6.844,-1.896 9.983,-3.324 L 59.976,81.176 z"
       inkscape:connector-curvature="0" /><path
       style="color:#000000;fill:#004a40;fill-opacity:1;fill-rule:nonzero;stroke:none;stroke-width:0.58210337;marker:none;visibility:visible;display:inline;overflow:visible;enable-background:accumulate"
       id="path4221"
       d="m 23.517,67.331 c -0.59,-2.678 -0.683,-5.35 -0.357,-7.921 l 0,0 C 18.043,65.49 18.02,70.581 18.02,70.581 11.494,59.867 0.345,58.263 0.345,58.263 c 0.141,0.828 0.3,1.656 0.482,2.486 3.085,14.006 11.763,25.333 23.168,32.158 L 32.543,81.144 C 28.11,77.911 24.789,73.113 23.517,67.331 z"
       inkscape:connector-curvature="0" /><path
       style="color:#000000;fill:#004a40;fill-opacity:1;fill-rule:nonzero;stroke:none;stroke-width:0.58210337;marker:none;visibility:visible;display:inline;overflow:visible;enable-background:accumulate"
       id="path4223"
       d="M 48.14,0.024 V 39.09 c 4.306,0.343 8.379,1.88 11.798,4.348 L 82.525,12.347 C 73.204,4.223 60.983,-0.379 48.14,0.024 z"
       inkscape:connector-curvature="0" /></g><g
     transform="matrix(0.33948906,0,0,0.33948906,-504.8783,297.28494)"
     id="g4101"
     style="color:#000000;fill:#004a40;fill-opacity:1;fill-rule:nonzero;stroke-width:0.36574002;stroke-linecap:butt;stroke-linejoin:miter;stroke-miterlimit:4;stroke-opacity:1;stroke-dasharray:none;stroke-dashoffset:0;marker:none;visibility:visible;display:inline;overflow:visible;enable-background:accumulate;stroke:none"
     inkscape:export-filename="C:\GeorgePlaten.github.io\fe-p5\map\app\images\carnivore.png"
     inkscape:export-xdpi="90"
     inkscape:export-ydpi="90"><path
       inkscape:connector-curvature="0"
       d="M 89.942,60.768 V 53.686 C 89.944,51.993 89.454,49.495 87.116,47.195 84.801,44.918 81.121,43.341 76.178,42.505 75.767,42.418 75.374,42.358 74.943,42.314 74.2,42.213 73.448,42.133 72.674,42.068 66.739,41.299 65.445,40.04 64.145,38.206 62.23,34.829 58.518,32.317 53.071,30.675 48.733,29.372 43.29,28.654 37.748,28.654 c -12.773,0 -27.689,3.805 -27.689,14.525 v 7.083 c 0,3.563 1.865,9.996 14.359,13.046 7.286,1.933 25.416,5.429 28.977,6.108 l 0.254,0.052 c 7.51,1.244 13.862,1.878 18.848,1.878 4.611,0 8.166,-0.527 10.866,-1.612 4.181,-1.682 6.579,-4.95 6.579,-8.966 z m -7.321,7.12 c -2.461,0.989 -5.774,1.47 -10.127,1.47 -4.869,0 -11.112,-0.625 -18.557,-1.86 C 51.693,67.069 32.602,63.414 25.021,61.412 L 24.777,61.349 C 16.563,59.321 12.044,55.388 12.044,50.264 v -7.083 c 0,-8.662 12.907,-12.539 25.7,-12.539 5.357,0 10.596,0.688 14.752,1.937 5.027,1.513 8.379,3.764 9.961,6.691 1.809,2.578 3.785,3.98 10.008,4.778 0.766,0.059 1.533,0.144 2.248,0.243 0.377,0.034 0.743,0.092 1.085,0.168 10.577,1.765 12.16,6.537 12.158,9.224 v 7.088 c 0,2.265 -0.925,5.341 -5.335,7.117 z"
       id="path4103"
       style="color:#000000;fill:#004a40;fill-opacity:1;fill-rule:nonzero;stroke-width:0.36574002;stroke-linecap:butt;stroke-linejoin:miter;stroke-miterlimit:4;stroke-opacity:1;stroke-dasharray:none;stroke-dashoffset:0;marker:none;visibility:visible;display:inline;overflow:visible;enable-background:accumulate;stroke:none" /><path
       inkscape:connector-curvature="0"
       d="M 73.941,47.577 C 73.714,47.518 73.442,47.478 73.117,47.447 72.422,47.35 71.716,47.275 70.995,47.22 64.071,46.335 61.628,44.529 59.434,41.359 H 59.43 c -5.104,-10.026 -43.271,-9.252 -43.271,2.318 0,3.912 4.361,6.591 10.33,8.033 h -0.001 c 7.425,1.978 27.497,5.807 27.508,5.807 14.341,2.388 29.435,3.313 29.435,-3.767 -0.002,-3.241 -4.183,-5.297 -9.49,-6.173 z M 31.247,44.965 c -3.6,0 -6.518,-1.266 -6.518,-2.825 0,-1.559 2.918,-2.824 6.518,-2.824 3.6,0 6.518,1.265 6.518,2.824 -10e-4,1.559 -2.919,2.825 -6.518,2.825 z"
       id="path4105"
       style="color:#000000;fill:#004a40;fill-opacity:1;fill-rule:nonzero;stroke-width:0.36574002;stroke-linecap:butt;stroke-linejoin:miter;stroke-miterlimit:4;stroke-opacity:1;stroke-dasharray:none;stroke-dashoffset:0;marker:none;visibility:visible;display:inline;overflow:visible;enable-background:accumulate;stroke:none" /></g><g
     style="color:#000000;fill:#004a40;fill-opacity:1;fill-rule:nonzero;stroke:none;stroke-width:0.36574003;marker:none;visibility:visible;display:inline;overflow:visible;enable-background:accumulate"
     id="g4288"
     transform="matrix(0.33948906,0,0,0.33948906,-504.8783,377.28494)"
     inkscape:export-filename="C:\GeorgePlaten.github.io\fe-p5\map\app\images\scarnivore.png"
     inkscape:export-xdpi="90"
     inkscape:export-ydpi="90"><path
       style="color:#000000;fill:#004a40;fill-opacity:1;fill-rule:nonzero;stroke:none;stroke-width:0.36574003;marker:none;visibility:visible;display:inline;overflow:visible;enable-background:accumulate"
       id="path4290"
       d="M 89.942,60.768 V 53.686 C 89.944,51.993 89.454,49.495 87.116,47.195 84.801,44.918 81.121,43.341 76.178,42.505 75.767,42.418 75.374,42.358 74.943,42.314 74.2,42.213 73.448,42.133 72.674,42.068 66.739,41.299 65.445,40.04 64.145,38.206 62.23,34.829 58.518,32.317 53.071,30.675 48.733,29.372 43.29,28.654 37.748,28.654 c -12.773,0 -27.689,3.805 -27.689,14.525 v 7.083 c 0,3.563 1.865,9.996 14.359,13.046 7.286,1.933 25.416,5.429 28.977,6.108 l 0.254,0.052 c 7.51,1.244 13.862,1.878 18.848,1.878 4.611,0 8.166,-0.527 10.866,-1.612 4.181,-1.682 6.579,-4.95 6.579,-8.966 z m -7.321,7.12 c -2.461,0.989 -5.774,1.47 -10.127,1.47 -4.869,0 -11.112,-0.625 -18.557,-1.86 C 51.693,67.069 32.602,63.414 25.021,61.412 L 24.777,61.349 C 16.563,59.321 12.044,55.388 12.044,50.264 v -7.083 c 0,-8.662 12.907,-12.539 25.7,-12.539 5.357,0 10.596,0.688 14.752,1.937 5.027,1.513 8.379,3.764 9.961,6.691 1.809,2.578 3.785,3.98 10.008,4.778 0.766,0.059 1.533,0.144 2.248,0.243 0.377,0.034 0.743,0.092 1.085,0.168 10.577,1.765 12.16,6.537 12.158,9.224 v 7.088 c 0,2.265 -0.925,5.341 -5.335,7.117 z"
       inkscape:connector-curvature="0" /><path
       style="color:#000000;fill:#004a40;fill-opacity:1;fill-rule:nonzero;stroke:none;stroke-width:0.36574003;marker:none;visibility:visible;display:inline;overflow:visible;enable-background:accumulate"
       id="path4292"
       d="M 73.941,47.577 C 73.714,47.518 73.442,47.478 73.117,47.447 72.422,47.35 71.716,47.275 70.995,47.22 64.071,46.335 61.628,44.529 59.434,41.359 H 59.43 c -5.104,-10.026 -43.271,-9.252 -43.271,2.318 0,3.912 4.361,6.591 10.33,8.033 h -0.001 c 7.425,1.978 27.497,5.807 27.508,5.807 14.341,2.388 29.435,3.313 29.435,-3.767 -0.002,-3.241 -4.183,-5.297 -9.49,-6.173 z M 31.247,44.965 c -3.6,0 -6.518,-1.266 -6.518,-2.825 0,-1.559 2.918,-2.824 6.518,-2.824 3.6,0 6.518,1.265 6.518,2.824 -10e-4,1.559 -2.919,2.825 -6.518,2.825 z"
       inkscape:connector-curvature="0" /></g><path
     style="opacity:0.72772277;color:#000000;fill:#1a1a1a;fill-opacity:1;stroke:none;stroke-width:1.56000006;marker:none;visibility:visible;display:inline;overflow:visible;filter:url(#filter4051);enable-background:accumulate"
     d="m -549.83538,315.36441 c -0.0968,14.9822 -18.04534,18.23291 -18.36178,38.60006 0.25465,-19.70465 -16.97694,-24.5657 -17.07376,-38.60006 -0.0661,-9.57934 7.93251,-17.34532 17.71776,-17.34532 9.78526,0 17.77967,7.76596 17.71778,17.34532 z"
     id="path4294"
     inkscape:connector-curvature="0"
     sodipodi:nodetypes="scsss"
     inkscape:export-filename="C:\GeorgePlaten.github.io\fe-p5\map\app\images\rodent.png"
     inkscape:export-xdpi="90"
     inkscape:export-ydpi="90" /><path
     inkscape:export-ydpi="90"
     inkscape:export-xdpi="90"
     inkscape:export-filename="C:\GeorgePlaten.github.io\fe-p5\map\app\images\rodent.png"
     sodipodi:nodetypes="scsss"
     inkscape:connector-curvature="0"
     id="path4296"
     d="m -550.23183,314.40731 c -0.0968,14.9822 -17.69179,19.64712 -18.00823,40.01427 0.25465,-19.70465 -17.33049,-25.97991 -17.42731,-40.01427 -0.0661,-9.57934 7.93251,-17.34532 17.71776,-17.34532 9.78526,0 17.77967,7.76596 17.71778,17.34532 z"
     style="color:#000000;fill:#ff6767;fill-opacity:1;stroke:none;stroke-width:1.56000006;marker:none;visibility:visible;display:inline;overflow:visible;enable-background:accumulate" /><path
     inkscape:export-ydpi="90"
     inkscape:export-xdpi="90"
     inkscape:export-filename="C:\GeorgePlaten.github.io\fe-p5\map\app\images\srodent.png"
     sodipodi:nodetypes="scsss"
     inkscape:connector-curvature="0"
     id="path4298"
     d="m -549.83538,395.36441 c -0.0968,14.9822 -18.04534,18.23291 -18.36178,38.60006 0.25465,-19.70465 -16.97694,-24.5657 -17.07376,-38.60006 -0.0661,-9.57934 7.93251,-17.34532 17.71776,-17.34532 9.78526,0 17.77967,7.76596 17.71778,17.34532 z"
     style="opacity:0.72772277;color:#000000;fill:#1a1a1a;fill-opacity:1;stroke:none;stroke-width:1.56000006;marker:none;visibility:visible;display:inline;overflow:visible;filter:url(#filter4051);enable-background:accumulate" /><path
     style="color:#000000;fill:#00eed6;fill-opacity:1;stroke:none;stroke-width:1.56000006;marker:none;visibility:visible;display:inline;overflow:visible;enable-background:accumulate"
     d="m -550.23183,394.40731 c -0.0968,14.9822 -17.69179,19.64712 -18.00823,40.01427 0.25465,-19.70465 -17.33049,-25.97991 -17.42731,-40.01427 -0.0661,-9.57934 7.93251,-17.34532 17.71776,-17.34532 9.78526,0 17.77967,7.76596 17.71778,17.34532 z"
     id="path4300"
     inkscape:connector-curvature="0"
     sodipodi:nodetypes="scsss"
     inkscape:export-filename="C:\GeorgePlaten.github.io\fe-p5\map\app\images\srodent.png"
     inkscape:export-xdpi="90"
     inkscape:export-ydpi="90" /><path
     inkscape:export-ydpi="90"
     inkscape:export-xdpi="90"
     inkscape:export-filename="C:\GeorgePlaten.github.io\fe-p5\map\app\images\rodent.png"
     sodipodi:nodetypes="ccccccccccsccccccccsc"
     inkscape:connector-curvature="0"
     id="path4302"
     d="m -573.85593,309.82423 c -2.07383,1.66259 -6.72827,2.2559 -7.6575,4.82707 -0.29553,1.40171 0.52275,1.12962 1.16355,2.47303 -0.21097,1.56489 4.1143,4.46922 4.1143,4.46922 0,0 -1.78762,-1.94016 -1.91979,-2.91664 -0.54618,-2.13517 1.84117,-2.63824 3.28502,-3.53736 2.57642,-0.79718 6.0949,-0.2636 5.85721,2.06343 -0.18527,1.43516 -1.87751,3.52123 -3.41629,3.78003 -1.74928,0.69745 -3.68116,-0.32996 -3.68116,-0.32996 0,0 2.27321,1.56801 3.72003,1.78159 2.76665,0.1497 5.50811,-1.72926 8.06501,-3.09687 2.68773,-1.43759 5.70387,-1.94103 7.47332,-4.42288 1.65998,-2.17687 0.72441,-4.12384 -0.92557,-5.8968 -5.4537,-6.49421 -13.71425,-1.61629 -16.07813,0.80614 z m 5.79231,-1.41822 c 0.40461,-0.002 0.80776,0.0795 1.17936,0.25379 0.96446,0.26012 2.34925,1.42022 1.32864,2.40351 -0.89307,0.6954 -2.02661,1.02209 -3.12008,1.254 -1.01259,0.23093 -1.90153,-0.63547 -2.01536,-1.59736 -0.25144,-0.98495 0.60488,-1.75829 1.44807,-2.06015 0.37407,-0.1593 0.77475,-0.25131 1.17937,-0.25379 z"
     style="color:#000000;fill:#004a40;fill-opacity:1;fill-rule:nonzero;stroke:none;stroke-width:0.12416474;marker:none;visibility:visible;display:inline;overflow:visible;enable-background:accumulate" /><path
     inkscape:export-ydpi="90"
     inkscape:export-xdpi="90"
     inkscape:export-filename="C:\GeorgePlaten.github.io\fe-p5\map\app\images\srodent.png"
     style="color:#000000;fill:#004a40;fill-opacity:1;fill-rule:nonzero;stroke:none;stroke-width:0.12416474;marker:none;visibility:visible;display:inline;overflow:visible;enable-background:accumulate"
     d="m -573.85593,389.82424 c -2.07383,1.66259 -6.72827,2.2559 -7.6575,4.82707 -0.29553,1.40171 0.52275,1.12962 1.16355,2.47303 -0.21097,1.56489 4.1143,4.46922 4.1143,4.46922 0,0 -1.78762,-1.94016 -1.91979,-2.91664 -0.54618,-2.13517 1.84117,-2.63824 3.28502,-3.53736 2.57642,-0.79718 6.0949,-0.26361 5.85721,2.06343 -0.18527,1.43516 -1.87751,3.52123 -3.41629,3.78003 -1.74928,0.69744 -3.68116,-0.32997 -3.68116,-0.32997 0,0 2.27321,1.56802 3.72003,1.7816 2.76665,0.1497 5.50811,-1.72926 8.06501,-3.09687 2.68773,-1.43759 5.70387,-1.94103 7.47332,-4.42288 1.65998,-2.17687 0.72441,-4.12384 -0.92557,-5.8968 -5.4537,-6.49421 -13.71425,-1.61629 -16.07813,0.80614 z m 5.79231,-1.41822 c 0.40461,-0.002 0.80776,0.0795 1.17936,0.25379 0.96446,0.26012 2.34925,1.42022 1.32864,2.40351 -0.89307,0.6954 -2.02661,1.02209 -3.12008,1.254 -1.01259,0.23093 -1.90153,-0.63547 -2.01536,-1.59736 -0.25144,-0.98495 0.60488,-1.75829 1.44807,-2.06015 0.37407,-0.1593 0.77475,-0.25131 1.17937,-0.25379 z"
     id="path4338"
     inkscape:connector-curvature="0"
     sodipodi:nodetypes="ccccccccccsccccccccsc" /><path
     inkscape:export-ydpi="90"
     inkscape:export-xdpi="90"
     inkscape:export-filename="C:\GeorgePlaten.github.io\fe-p5\map\app\images\fish.png"
     sodipodi:nodetypes="scsss"
     inkscape:connector-curvature="0"
     id="path4426"
     d="m -629.83538,315.36441 c -0.0968,14.9822 -18.04534,18.23291 -18.36178,38.60006 0.25465,-19.70465 -16.97694,-24.5657 -17.07376,-38.60006 -0.0661,-9.57934 7.93251,-17.34532 17.71776,-17.34532 9.78526,0 17.77967,7.76596 17.71778,17.34532 z"
     style="opacity:0.72772277;color:#000000;fill:#1a1a1a;fill-opacity:1;stroke:none;stroke-width:1.56000006;marker:none;visibility:visible;display:inline;overflow:visible;filter:url(#filter4051);enable-background:accumulate" /><path
     style="color:#000000;fill:#ff6767;fill-opacity:1;stroke:none;stroke-width:1.56000006;marker:none;visibility:visible;display:inline;overflow:visible;enable-background:accumulate"
     d="m -630.23183,314.40731 c -0.0968,14.9822 -17.69179,19.64712 -18.00823,40.01427 0.25465,-19.70465 -17.33049,-25.97991 -17.42731,-40.01427 -0.0661,-9.57934 7.93251,-17.34532 17.71776,-17.34532 9.78526,0 17.77967,7.76596 17.71778,17.34532 z"
     id="path4428"
     inkscape:connector-curvature="0"
     sodipodi:nodetypes="scsss"
     inkscape:export-filename="C:\GeorgePlaten.github.io\fe-p5\map\app\images\fish.png"
     inkscape:export-xdpi="90"
     inkscape:export-ydpi="90" /><path
     style="opacity:0.72772277;color:#000000;fill:#1a1a1a;fill-opacity:1;stroke:none;stroke-width:1.56000006;marker:none;visibility:visible;display:inline;overflow:visible;filter:url(#filter4051);enable-background:accumulate"
     d="m -629.83538,395.36441 c -0.0968,14.9822 -18.04534,18.23291 -18.36178,38.60006 0.25465,-19.70465 -16.97694,-24.5657 -17.07376,-38.60006 -0.0661,-9.57934 7.93251,-17.34532 17.71776,-17.34532 9.78526,0 17.77967,7.76596 17.71778,17.34532 z"
     id="path4430"
     inkscape:connector-curvature="0"
     sodipodi:nodetypes="scsss"
     inkscape:export-filename="C:\GeorgePlaten.github.io\fe-p5\map\app\images\sfish.png"
     inkscape:export-xdpi="90"
     inkscape:export-ydpi="90" /><path
     inkscape:export-ydpi="90"
     inkscape:export-xdpi="90"
     inkscape:export-filename="C:\GeorgePlaten.github.io\fe-p5\map\app\images\sfish.png"
     sodipodi:nodetypes="scsss"
     inkscape:connector-curvature="0"
     id="path4432"
     d="m -630.23183,394.40731 c -0.0968,14.9822 -17.69179,19.64712 -18.00823,40.01427 0.25465,-19.70465 -17.33049,-25.97991 -17.42731,-40.01427 -0.0661,-9.57934 7.93251,-17.34532 17.71776,-17.34532 9.78526,0 17.77967,7.76596 17.71778,17.34532 z"
     style="color:#000000;fill:#00eed6;fill-opacity:1;stroke:none;stroke-width:1.56000006;marker:none;visibility:visible;display:inline;overflow:visible;enable-background:accumulate" /><path
     style="fill:#004a40;color:#000000;fill-opacity:1;fill-rule:nonzero;stroke:none;stroke-width:0.12416474;marker:none;visibility:visible;display:inline;overflow:visible;enable-background:accumulate"
     inkscape:connector-curvature="0"
     d="m -641.06574,306.14038 c 0.064,-0.44261 1.49338,-2.76095 1.01543,-2.91393 -2.86316,-0.92008 -9.42918,3.66535 -11.21573,5.46471 -1.2e-4,0.003 8.9e-4,0.004 8.9e-4,0.004 -0.59517,0.79453 -1.63285,1.13254 -2.48722,1.63806 -0.41936,0.28701 -2.8812,1.04295 -3.3404,1.94951 -0.31879,0.62903 0.15464,1.15608 0.3973,1.26637 l 0.62074,2.35937 c 2.3e-4,0.44143 -1.45638,2.50431 -0.12406,6.45667 1.48982,4.42059 4.97919,5.89855 6.13431,6.23347 0.34194,0.0989 1.07474,0.74266 1.07474,0.74266 0.27893,-0.13426 -0.25641,-1.20756 -0.3667,-1.84775 -0.11055,-0.64043 0.43216,-4.02424 0.6084,-4.73084 0.0993,-0.39751 1.01305,-0.98317 0.83184,-1.15489 -0.30598,-0.28986 -3.69383,2.72702 -4.95926,1.06641 -0.514,-0.67434 4.43482,-4.23699 6.39974,-5.76025 1.70614,-1.32236 4.03514,-4.43316 5.52971,-6.74699 -0.56334,0.1805 -1.23507,0.31049 -2.03133,0.33681 -1.66772,0.0557 -2.51497,-1.53156 -2.19026,-2.41321 0,0 0.4272,1.65206 2.00501,1.76353 0.71229,0.0501 1.65086,-0.0982 3.1969,-1.31596 1.06572,-1.99313 1.21563,-3.44286 0.75452,-3.65681 -0.35531,-0.16415 -1.91274,1.66463 -1.85368,1.25831 z m -1.51187,0.39327 c -0.21276,0.21275 -0.50475,0.26565 -0.65205,0.11836 -0.14729,-0.14731 -0.0944,-0.43929 0.1184,-0.65205 0.21229,-0.21229 0.5045,-0.26542 0.65181,-0.11811 0.14728,0.14729 0.0942,0.43951 -0.11813,0.6518 z"
     id="path4389"
     sodipodi:nodetypes="ccccccccccccsccccccccccsssss"
     inkscape:export-filename="C:\GeorgePlaten.github.io\fe-p5\map\app\images\fish.png"
     inkscape:export-xdpi="90"
     inkscape:export-ydpi="90" /><path
     sodipodi:nodetypes="ccccccccccccsccccccccccsssss"
     id="path4463"
     d="m -641.06574,386.14038 c 0.064,-0.44261 1.49338,-2.76095 1.01543,-2.91393 -2.86316,-0.92008 -9.42918,3.66535 -11.21573,5.46471 -1.2e-4,0.003 8.9e-4,0.004 8.9e-4,0.004 -0.59517,0.79453 -1.63285,1.13254 -2.48722,1.63806 -0.41936,0.28701 -2.8812,1.04295 -3.3404,1.94951 -0.31879,0.62903 0.15464,1.15608 0.3973,1.26637 l 0.62074,2.35937 c 2.3e-4,0.44143 -1.45638,2.50431 -0.12406,6.45667 1.48982,4.42059 4.97919,5.89855 6.13431,6.23347 0.34194,0.0989 1.07474,0.74266 1.07474,0.74266 0.27893,-0.13426 -0.25641,-1.20756 -0.3667,-1.84775 -0.11055,-0.64043 0.43216,-4.02424 0.6084,-4.73084 0.0993,-0.39751 1.01305,-0.98317 0.83184,-1.15489 -0.30598,-0.28986 -3.69383,2.72702 -4.95926,1.06641 -0.514,-0.67434 4.43482,-4.23699 6.39974,-5.76025 1.70614,-1.32236 4.03514,-4.43316 5.52971,-6.74699 -0.56334,0.1805 -1.23507,0.31049 -2.03133,0.33681 -1.66772,0.0557 -2.51497,-1.53156 -2.19026,-2.41321 0,0 0.4272,1.65206 2.00501,1.76353 0.71229,0.0501 1.65086,-0.0982 3.1969,-1.31596 1.06572,-1.99313 1.21563,-3.44286 0.75452,-3.65681 -0.35531,-0.16415 -1.91274,1.66463 -1.85368,1.25831 z m -1.51187,0.39327 c -0.21276,0.21275 -0.50475,0.26565 -0.65205,0.11836 -0.14729,-0.14731 -0.0944,-0.43929 0.1184,-0.65205 0.21229,-0.21229 0.5045,-0.26542 0.65181,-0.11811 0.14728,0.14729 0.0942,0.43951 -0.11813,0.6518 z"
     inkscape:connector-curvature="0"
     style="color:#000000;fill:#004a40;fill-opacity:1;fill-rule:nonzero;stroke:none;stroke-width:0.12416474;marker:none;visibility:visible;display:inline;overflow:visible;enable-background:accumulate"
     inkscape:export-filename="C:\GeorgePlaten.github.io\fe-p5\map\app\images\sfish.png"
     inkscape:export-xdpi="90"
     inkscape:export-ydpi="90" /></svg>